<?xml version="1.0" standalone="no"?>
<!DOCTYPE svg PUBLIC "-//W3C//DTD SVG 20010904//EN"
 "http://www.w3.org/TR/2001/REC-SVG-20010904/DTD/svg10.dtd">
<svg version="1.0" xmlns="http://www.w3.org/2000/svg"
 width="2211.000000pt" height="2211.000000pt" viewBox="0 0 2211.000000 2211.000000"
 preserveAspectRatio="xMidYMid meet">
<metadata>
Created by potrace 1.11, written by Peter Selinger 2001-2013
</metadata>
<g transform="translate(0.000000,2211.000000) scale(0.100000,-0.100000)"
fill="#000000" stroke="none">
<path d="M10580 20520 c-118 -5 -244 -14 -280 -20 -36 -5 -139 -17 -230 -25
-91 -8 -205 -21 -255 -29 -49 -8 -155 -24 -235 -36 -168 -23 -362 -61 -505
-96 -125 -31 -348 -89 -440 -114 -38 -11 -97 -26 -130 -35 -53 -13 -166 -47
-350 -105 -33 -10 -105 -35 -160 -55 -55 -21 -127 -46 -160 -57 -33 -11 -87
-31 -120 -44 -33 -13 -84 -29 -113 -34 -29 -5 -83 -27 -120 -49 -82 -48 -171
-91 -277 -136 -202 -84 -644 -319 -865 -460 -36 -22 -92 -56 -125 -74 -154
-85 -440 -273 -567 -372 -68 -54 -97 -75 -190 -139 -48 -33 -104 -74 -124 -92
-20 -17 -58 -48 -84 -67 -27 -20 -85 -67 -128 -106 -44 -38 -101 -87 -127
-108 -139 -108 -838 -801 -962 -952 -45 -55 -106 -129 -135 -164 -127 -153
-261 -332 -364 -486 -192 -285 -357 -542 -389 -605 -21 -41 -46 -86 -55 -100
-10 -14 -28 -45 -40 -70 -22 -44 -66 -115 -120 -195 -15 -22 -34 -60 -42 -85
-8 -25 -29 -67 -47 -94 -17 -28 -31 -57 -31 -65 0 -8 -11 -33 -24 -55 -13 -23
-45 -90 -71 -151 -26 -60 -83 -185 -126 -277 -44 -92 -79 -174 -79 -183 0 -8
-13 -48 -29 -88 -15 -39 -34 -88 -40 -107 -7 -19 -33 -91 -57 -160 -25 -69
-51 -145 -59 -170 -16 -52 -51 -161 -67 -205 -5 -16 -16 -54 -24 -82 -8 -29
-21 -78 -29 -108 -8 -30 -22 -81 -31 -112 -8 -32 -21 -87 -29 -123 -7 -36 -21
-99 -30 -140 -9 -41 -23 -106 -31 -145 -7 -38 -20 -104 -29 -145 -8 -41 -20
-113 -26 -160 -6 -47 -17 -108 -24 -136 -7 -28 -18 -111 -25 -185 -14 -170
-23 -226 -50 -319 -19 -67 -21 -108 -26 -390 -3 -204 -11 -359 -21 -440 -19
-144 -20 -170 -5 -225 16 -57 15 -179 -4 -305 -15 -104 -15 -112 4 -192 16
-64 22 -133 27 -303 8 -293 23 -502 40 -587 8 -38 15 -97 15 -131 0 -33 6 -88
14 -121 32 -138 38 -176 51 -290 8 -66 23 -160 34 -210 11 -50 32 -145 47
-211 15 -66 30 -145 34 -176 10 -78 56 -265 96 -389 18 -58 47 -152 64 -210
17 -58 40 -127 50 -155 11 -27 42 -115 69 -195 27 -80 77 -212 111 -295 34
-82 76 -188 94 -235 19 -47 116 -249 216 -450 173 -346 309 -589 489 -870 158
-248 202 -328 231 -419 28 -91 77 -169 181 -289 21 -24 52 -68 68 -97 28 -49
39 -58 119 -100 96 -49 106 -58 337 -316 66 -74 162 -174 214 -224 52 -49 156
-149 230 -220 75 -72 174 -162 221 -201 47 -40 99 -86 115 -104 30 -33 175
-151 275 -226 30 -22 61 -48 69 -58 8 -9 57 -46 110 -83 53 -37 141 -103 196
-147 55 -44 125 -94 155 -112 73 -42 300 -182 508 -313 118 -74 941 -492 1056
-536 33 -12 97 -37 141 -55 44 -17 107 -42 140 -55 33 -13 98 -40 145 -60 47
-20 132 -49 190 -65 58 -16 155 -47 215 -69 61 -22 137 -46 170 -54 33 -9 102
-27 153 -42 52 -15 115 -30 140 -35 26 -4 92 -19 147 -33 270 -70 315 -80 375
-88 36 -4 81 -12 100 -18 19 -6 52 -11 72 -11 20 0 63 -7 95 -15 31 -8 75 -15
97 -15 22 0 74 -6 116 -14 207 -40 249 -46 300 -46 30 0 71 -5 90 -11 19 -6
107 -14 195 -19 88 -5 203 -14 255 -20 125 -15 883 -8 960 8 30 6 161 16 290
21 176 8 256 15 318 31 46 11 105 20 131 20 26 0 73 7 104 15 32 8 83 15 113
15 31 0 83 7 117 15 163 39 334 75 353 75 12 0 73 13 135 30 63 16 129 30 148
30 18 0 73 14 123 30 49 17 95 30 103 30 50 0 736 223 920 300 55 23 128 52
163 66 34 13 104 45 155 70 50 26 120 57 154 70 79 30 467 224 519 259 21 15
80 47 129 72 50 25 108 58 130 73 22 15 72 43 110 63 39 19 149 88 245 152 96
64 193 126 215 137 34 18 149 99 264 187 18 14 55 42 81 61 26 19 81 61 121
93 41 31 103 80 139 108 36 28 85 69 110 93 25 24 77 68 115 98 39 31 84 70
100 88 17 18 64 60 105 93 109 89 731 704 759 751 14 23 49 73 78 111 30 39
120 157 201 263 208 273 236 308 282 358 22 24 60 86 85 137 24 50 63 121 87
157 23 36 65 102 93 147 89 146 149 242 217 349 37 58 72 121 78 139 6 19 60
132 119 252 60 120 112 229 116 243 4 14 27 68 50 120 109 241 140 313 182
425 25 66 52 143 60 170 14 45 29 88 87 260 17 49 46 145 104 350 16 55 37
136 47 180 10 44 31 121 46 170 16 50 29 101 29 114 0 13 6 47 14 75 23 81 46
198 46 231 0 16 7 63 14 105 8 41 22 120 31 175 9 55 23 133 31 173 8 40 14
114 14 165 0 51 7 117 15 147 8 30 15 82 15 115 0 33 7 92 15 130 12 58 14
180 14 715 -1 355 -5 708 -10 785 -4 77 -13 219 -18 315 -6 96 -13 184 -17
195 -8 27 -32 241 -44 391 -5 66 -14 133 -20 148 -5 15 -10 48 -10 74 -1 26
-5 67 -11 92 -5 25 -14 81 -19 124 -5 44 -14 100 -19 125 -6 25 -15 71 -21
101 -6 30 -18 87 -26 125 -8 39 -19 95 -25 125 -5 30 -14 66 -20 80 -6 14 -15
45 -19 70 -5 25 -16 72 -24 105 -8 33 -20 83 -26 110 -6 28 -15 59 -21 70 -5
11 -13 40 -19 65 -12 61 -33 133 -60 205 -22 62 -34 105 -51 190 -6 28 -16 57
-22 65 -7 8 -21 33 -31 55 -10 22 -22 47 -26 55 -4 9 -11 36 -15 60 -4 25 -15
59 -25 75 -10 17 -23 48 -30 70 -7 22 -23 64 -36 92 -14 29 -27 67 -31 85 -3
18 -11 40 -18 48 -7 8 -15 24 -18 35 -9 33 -42 118 -58 147 -8 15 -51 103 -97
195 -45 93 -87 175 -92 183 -4 8 -46 89 -91 180 -45 91 -94 183 -109 205 -37
57 -45 72 -78 140 -17 33 -39 69 -51 79 -11 11 -21 25 -21 32 0 7 -11 26 -25
42 -13 16 -29 40 -35 53 -14 33 -49 89 -82 130 -55 69 -98 129 -98 137 0 4
-13 23 -30 42 -16 19 -29 40 -30 46 0 6 -24 37 -53 70 -50 56 -97 121 -124
168 -7 12 -43 56 -80 98 -64 72 -100 118 -181 225 -18 24 -63 76 -100 116 -37
40 -85 95 -107 122 -71 89 -426 444 -570 570 -77 68 -153 137 -170 155 -16 18
-57 53 -90 78 -33 25 -85 68 -115 96 -31 28 -77 67 -104 86 -118 85 -149 109
-179 138 -18 16 -52 43 -76 58 -24 16 -60 40 -81 54 -21 14 -57 38 -81 54 -24
15 -57 41 -74 57 -16 15 -41 33 -55 39 -41 17 -93 50 -131 84 -20 17 -51 40
-69 51 -18 11 -50 30 -69 42 -20 13 -47 27 -60 33 -13 6 -36 21 -51 33 -15 12
-42 31 -60 42 -19 11 -50 30 -69 42 -20 12 -49 29 -66 38 -16 8 -46 26 -65 40
-75 53 -97 67 -148 100 -30 18 -76 41 -104 50 -28 9 -128 55 -222 102 -171 86
-399 190 -531 243 -38 15 -108 45 -155 65 -47 20 -98 42 -115 47 -16 6 -59 21
-95 34 -36 13 -78 26 -95 30 -16 4 -57 18 -90 32 -33 13 -80 30 -105 37 -25 7
-72 22 -105 33 -149 51 -337 105 -545 157 -124 30 -247 62 -275 70 -27 8 -106
24 -175 35 -69 11 -165 28 -215 39 -49 11 -115 22 -145 26 -30 3 -91 13 -135
20 -44 8 -152 22 -239 30 -88 9 -179 20 -203 25 -115 26 -989 45 -1363 30z
m88 -47 c-32 -2 -84 -2 -115 0 -32 2 -6 3 57 3 63 0 89 -1 58 -3z m850 0 c-49
-2 -127 -2 -175 0 -49 1 -9 3 87 3 96 0 136 -2 88 -3z m-1105 -10 c-13 -2 -35
-2 -50 0 -16 2 -5 4 22 4 28 0 40 -2 28 -4z m-188 -23 c-11 -5 -42 -8 -70 -8
l-50 1 55 7 c79 10 88 10 65 0z m1728 3 c-7 -2 -19 -2 -25 0 -7 3 -2 5 12 5
14 0 19 -2 13 -5z m70 -10 c-7 -2 -19 -2 -25 0 -7 3 -2 5 12 5 14 0 19 -2 13
-5z m-2046 -9 c-3 -3 -12 -4 -19 -1 -8 3 -5 6 6 6 11 1 17 -2 13 -5z m-49 -11
c-10 -2 -26 -2 -35 0 -10 3 -2 5 17 5 19 0 27 -2 18 -5z m2290 0 c-16 -2 -40
-2 -55 0 -16 2 -3 4 27 4 30 0 43 -2 28 -4z m105 -10 c-7 -2 -19 -2 -25 0 -7
3 -2 5 12 5 14 0 19 -2 13 -5z m-2590 -20 c-7 -2 -21 -2 -30 0 -10 3 -4 5 12
5 17 0 24 -2 18 -5z m2690 0 c-7 -2 -19 -2 -25 0 -7 3 -2 5 12 5 14 0 19 -2
13 -5z m-2755 -10 c-10 -2 -26 -2 -35 0 -10 3 -2 5 17 5 19 0 27 -2 18 -5z
m2840 0 c-10 -2 -26 -2 -35 0 -10 3 -2 5 17 5 19 0 27 -2 18 -5z m-2985 -20
c-7 -2 -21 -2 -30 0 -10 3 -4 5 12 5 17 0 24 -2 18 -5z m3110 0 c-7 -2 -19 -2
-25 0 -7 3 -2 5 12 5 14 0 19 -2 13 -5z m44 -9 c-3 -3 -12 -4 -19 -1 -8 3 -5
6 6 6 11 1 17 -2 13 -5z m-3342 -24 c-11 -5 -31 -8 -45 -8 -23 0 -22 1 5 8 42
11 65 11 40 0z m3488 -7 c-7 -2 -19 -2 -25 0 -7 3 -2 5 12 5 14 0 19 -2 13 -5z
m-3626 -19 c-3 -3 -12 -4 -19 -1 -8 3 -5 6 6 6 11 1 17 -2 13 -5z m3766 -1
c-7 -2 -21 -2 -30 0 -10 3 -4 5 12 5 17 0 24 -2 18 -5z m-3806 -9 c-3 -3 -12
-4 -19 -1 -8 3 -5 6 6 6 11 1 17 -2 13 -5z m3856 -1 c-7 -2 -19 -2 -25 0 -7 3
-2 5 12 5 14 0 19 -2 13 -5z m-3948 -23 c-3 -5 -16 -10 -28 -9 -20 1 -20 2 3
9 14 4 26 8 28 9 2 1 0 -3 -3 -9z m4041 -8 c-10 -2 -22 0 -28 6 -6 6 0 7 19 4
21 -5 23 -7 9 -10z m119 -22 c13 -6 15 -9 5 -9 -8 0 -22 4 -30 9 -18 12 -2 12
25 0z m-4318 -6 c-3 -3 -12 -4 -19 -1 -8 3 -5 6 6 6 11 1 17 -2 13 -5z m-82
-24 c-3 -5 -16 -10 -28 -9 -20 1 -20 2 3 9 14 4 26 8 28 9 2 1 0 -3 -3 -9z
m4525 0 l25 -8 -25 -1 c-14 0 -32 4 -40 9 -13 9 -13 10 0 9 8 -1 26 -5 40 -9z
m-4645 -30 c-11 -5 -27 -9 -35 -9 -9 0 -8 4 5 9 11 5 27 9 35 9 9 0 8 -4 -5
-9z m4782 -6 c-3 -3 -12 -4 -19 -1 -8 3 -5 6 6 6 11 1 17 -2 13 -5z m88 -24
c13 -6 15 -9 5 -9 -8 0 -22 4 -30 9 -18 12 -2 12 25 0z m-4988 -6 c-3 -3 -12
-4 -19 -1 -8 3 -5 6 6 6 11 1 17 -2 13 -5z m-117 -24 c-8 -5 -19 -10 -25 -10
-5 0 -3 5 5 10 8 5 20 10 25 10 6 0 3 -5 -5 -10z m5211 -8 c-7 -2 -18 1 -23 6
-8 8 -4 9 13 5 13 -4 18 -8 10 -11z m84 -22 c13 -6 15 -9 5 -9 -8 0 -22 4 -30
9 -18 12 -2 12 25 0z m-5398 -6 c-3 -3 -12 -4 -19 -1 -8 3 -5 6 6 6 11 1 17
-2 13 -5z m-92 -24 c-3 -5 -14 -10 -23 -9 -14 0 -13 2 3 9 27 11 27 11 20 0z
m5600 0 c13 -6 15 -9 5 -9 -8 0 -22 4 -30 9 -18 12 -2 12 25 0z m-5669 -25
c-11 -8 -31 -15 -45 -14 -21 0 -19 3 14 14 52 17 53 17 31 0z m5750 -13 c-10
-2 -22 0 -28 6 -6 6 0 7 19 4 21 -5 23 -7 9 -10z m-5861 -22 c-3 -5 -12 -10
-18 -10 -7 0 -6 4 3 10 19 12 23 12 15 0z m5955 0 c8 -5 11 -10 5 -10 -5 0
-17 5 -25 10 -8 5 -10 10 -5 10 6 0 17 -5 25 -10z m87 -36 c-3 -3 -12 -4 -19
-1 -8 3 -5 6 6 6 11 1 17 -2 13 -5z m-6212 -24 c-3 -5 -12 -10 -18 -10 -7 0
-6 4 3 10 19 12 23 12 15 0z m6300 0 c13 -6 15 -9 5 -9 -8 0 -22 4 -30 9 -18
12 -2 12 25 0z m-3495 -20 c0 -5 -10 -10 -22 -10 -19 0 -20 2 -8 10 19 13 30
13 30 0z m580 -1 c24 -5 46 -7 47 -2 4 11 163 4 163 -8 0 -5 19 -9 43 -8 37 1
39 2 17 10 -18 6 -14 7 15 2 22 -3 60 -9 85 -13 41 -7 38 -8 -35 -11 -122 -4
-255 -1 -318 9 -34 5 -62 5 -72 -1 -12 -6 -20 -5 -26 4 -18 30 7 35 81 18z
m-3450 -9 c-8 -5 -24 -9 -35 -9 -16 1 -16 2 5 9 35 11 48 11 30 0z m2714 -6
c19 -13 19 -14 1 -20 -10 -4 -53 -3 -96 2 -71 8 -79 8 -79 -8 0 -9 -9 -20 -20
-23 -16 -5 -19 -11 -13 -28 4 -12 8 -98 8 -192 0 -169 0 -170 23 -173 12 -2
22 -9 22 -15 -1 -14 -30 -55 -30 -42 0 4 -9 0 -20 -10 -26 -24 -28 -17 -34
140 -3 71 -10 131 -15 133 -6 2 -7 24 -4 52 3 26 1 62 -5 79 -8 21 -7 31 0 33
26 9 -5 26 -58 31 -62 6 -76 13 -54 27 26 17 84 24 88 11 4 -13 32 -15 32 -2
0 14 32 18 140 18 64 0 101 -4 114 -13z m3743 0 c-3 -3 -12 -4 -19 -1 -8 3 -5
6 6 6 11 1 17 -2 13 -5z m82 -30 c14 -12 -19 -1 -35 12 -18 14 -18 14 6 3 14
-6 27 -13 29 -15z m-6639 6 c0 -5 -8 -10 -17 -10 -15 0 -16 2 -3 10 19 12 20
12 20 0z m2400 -4 c0 -6 -18 -12 -40 -13 -45 -3 -55 14 -12 19 46 6 52 5 52
-6z m-2468 -22 c-12 -8 -30 -13 -40 -11 -13 4 -12 5 5 6 12 0 25 6 28 11 3 6
11 10 18 10 6 0 1 -7 -11 -16z m2288 -5 c0 -5 -7 -9 -15 -9 -15 0 -20 12 -9
23 8 8 24 -1 24 -14z m4481 -7 c-7 -2 -18 1 -23 6 -8 8 -4 9 13 5 13 -4 18 -8
10 -11z m-6906 -22 c-3 -5 -12 -10 -18 -10 -7 0 -6 4 3 10 19 12 23 12 15 0z
m3695 -10 c0 -11 -4 -20 -10 -20 -5 0 -10 9 -10 20 0 11 5 20 10 20 6 0 10 -9
10 -20z m3285 2 c-3 -3 -11 0 -18 7 -9 10 -8 11 6 5 10 -3 15 -9 12 -12z
m-7025 -17 c-7 -8 -17 -15 -23 -15 -6 0 -2 7 9 15 25 19 30 19 14 0z m5098 -5
c22 0 32 -5 32 -16 0 -13 -8 -15 -38 -11 -20 3 -45 9 -55 12 -25 10 -21 28 6
21 12 -3 37 -6 55 -6z m1997 0 c19 -8 19 -9 -2 -9 -12 -1 -25 4 -28 9 -7 12 2
12 30 0z m80 -38 c-3 -3 -11 0 -18 7 -9 10 -8 11 6 5 10 -3 15 -9 12 -12z
m-1998 2 c-3 -3 -12 -4 -19 -1 -8 3 -5 6 6 6 11 1 17 -2 13 -5z m-3439 -20
c21 -3 57 -1 82 5 44 10 110 -2 110 -20 0 -9 -147 -22 -160 -14 -5 3 -37 1
-70 -6 -74 -14 -96 -3 -54 30 15 12 34 19 42 16 7 -3 30 -8 50 -11z m5492 -12
c-7 -3 -19 3 -28 13 -16 15 -15 16 12 4 15 -7 23 -15 16 -17z m-7335 8 c-3 -5
-14 -10 -23 -10 -15 0 -15 2 -2 10 20 13 33 13 25 0z m3845 -25 c0 -20 -5 -35
-11 -35 -7 0 -18 -8 -25 -17 -12 -16 -13 -16 -14 9 0 20 4 26 15 22 11 -5 17
3 21 25 8 41 14 39 14 -4z m-3925 -5 c-3 -5 -12 -10 -18 -10 -7 0 -6 4 3 10
19 12 23 12 15 0z m7490 -8 c-3 -3 -11 0 -18 7 -9 10 -8 11 6 5 10 -3 15 -9
12 -12z m-2467 -90 c3 -87 2 -92 -18 -92 -22 0 -25 14 -20 115 2 66 6 78 23
72 8 -2 13 -37 15 -95z m-3222 73 c8 -7 -2 -18 -37 -38 -42 -25 -48 -32 -43
-52 7 -28 -22 -74 -47 -75 -14 0 -15 5 -3 51 15 56 29 79 50 79 8 0 14 8 14
18 0 10 3 22 6 25 9 9 47 4 60 -8z m-1856 -5 c-8 -5 -22 -9 -30 -9 -10 0 -8 3
5 9 27 12 43 12 25 0z m7615 -8 c-3 -3 -11 0 -18 7 -9 10 -8 11 6 5 10 -3 15
-9 12 -12z m-7690 -22 c-3 -5 -12 -10 -18 -10 -7 0 -6 4 3 10 19 12 23 12 15
0z m5695 4 c0 -18 -24 -84 -30 -84 -14 0 -19 42 -8 66 10 21 38 34 38 18z
m2065 -12 c-3 -3 -11 0 -18 7 -9 10 -8 11 6 5 10 -3 15 -9 12 -12z m-7825 -22
c-8 -5 -19 -10 -25 -10 -5 0 -3 5 5 10 8 5 20 10 25 10 6 0 3 -5 -5 -10z
m4100 -31 c0 -3 -7 -12 -15 -19 -13 -11 -15 -7 -15 26 1 36 2 38 15 20 8 -11
15 -23 15 -27z m3791 23 c-7 -2 -18 1 -23 6 -8 8 -4 9 13 5 13 -4 18 -8 10
-11z m59 -28 c0 -2 -9 0 -20 6 -11 6 -20 13 -20 16 0 2 9 0 20 -6 11 -6 20
-13 20 -16z m59 -30 c14 -12 -19 -1 -35 12 -18 14 -18 14 6 3 14 -6 27 -13 29
-15z m-8124 6 c-3 -5 -12 -10 -18 -10 -7 0 -6 4 3 10 19 12 23 12 15 0z m4206
-40 c21 0 22 -3 13 -49 -5 -21 -12 -31 -25 -31 -15 0 -19 -8 -19 -39 0 -22 4
-41 10 -43 5 -1 12 -61 15 -133 6 -135 0 -199 -16 -174 -6 10 -9 8 -9 -8 0
-13 3 -22 8 -21 7 2 58 -8 95 -18 9 -3 15 -9 12 -14 -7 -11 -98 1 -107 14 -5
8 -8 7 -8 -1 0 -7 -4 -13 -10 -13 -12 0 -14 562 -3 574 4 4 11 -4 16 -18 5
-16 16 -26 28 -26z m-4261 16 c0 -2 -9 -6 -20 -9 -11 -3 -18 -1 -14 4 5 9 34
13 34 5z m8235 -14 c-3 -3 -11 0 -18 7 -9 10 -8 11 6 5 10 -3 15 -9 12 -12z
m-8310 -22 c-3 -5 -12 -10 -18 -10 -7 0 -6 4 3 10 19 12 23 12 15 0z m4565 -9
c73 -9 33 -20 -65 -18 -60 2 -70 5 -73 21 -4 17 0 18 39 11 24 -4 69 -10 99
-14z m3805 1 c-3 -3 -11 0 -18 7 -9 10 -8 11 6 5 10 -3 15 -9 12 -12z m-8430
-22 c-3 -5 -12 -10 -18 -10 -7 0 -6 4 3 10 19 12 23 12 15 0z m8490 -8 c-3 -3
-11 0 -18 7 -9 10 -8 11 6 5 10 -3 15 -9 12 -12z m-6255 -49 c0 -17 5 -23 18
-21 12 2 17 -4 17 -22 0 -22 -4 -25 -30 -22 -50 5 -55 9 -55 53 0 31 3 40 14
36 10 -4 12 1 9 16 -4 22 -4 22 11 3 9 -11 16 -30 16 -43z m3216 30 c-10 -10
-19 5 -10 18 6 11 8 11 12 0 2 -7 1 -15 -2 -18z m-5496 2 c-7 -8 -17 -15 -23
-15 -6 0 -2 7 9 15 25 19 30 19 14 0z m8595 0 c32 -11 35 -14 15 -14 -14 0
-34 6 -44 14 -24 18 -21 18 29 0z m-2491 -53 c2 -23 3 -42 1 -42 -1 0 -11 11
-22 24 -19 22 -20 26 -6 46 19 27 22 23 27 -28z m-6169 18 c-3 -5 -12 -10 -18
-10 -7 0 -6 4 3 10 19 12 23 12 15 0z m4496 -27 c-9 -16 -10 -14 -11 12 0 21
3 26 11 18 8 -8 8 -16 0 -30z m4269 12 c19 -14 30 -25 24 -25 -10 1 -73 50
-63 50 3 0 20 -11 39 -25z m-8825 -15 c-3 -5 -12 -10 -18 -10 -7 0 -6 4 3 10
19 12 23 12 15 0z m1415 0 c0 -5 -4 -10 -10 -10 -5 0 -10 5 -10 10 0 6 5 10
10 10 6 0 10 -4 10 -10z m23 -3 c3 -8 1 -20 -4 -28 -6 -10 -9 -7 -9 14 0 29 5
35 13 14z m6081 -12 c12 -18 25 -25 47 -25 36 0 89 -26 89 -43 0 -7 12 -14 27
-15 15 -1 31 -9 36 -17 4 -8 18 -15 30 -15 18 0 19 -2 7 -10 -24 -15 -37 -12
-65 17 -16 18 -25 23 -25 13 0 -11 -3 -11 -12 -2 -17 17 -101 15 -145 -3 -46
-19 -46 -19 -39 10 4 14 2 25 -3 25 -12 0 -21 41 -14 68 8 31 46 29 67 -3z
m-7574 -15 c-14 -11 -30 -24 -37 -30 -7 -5 -18 -10 -25 -10 -7 0 7 14 32 30
51 34 68 39 30 10z m1477 -21 c5 -28 8 -30 18 -15 14 19 27 20 43 4 8 -8 9
-15 1 -25 -9 -10 -8 -13 4 -13 8 0 18 -6 20 -12 4 -10 8 -9 16 2 10 13 12 13
21 0 13 -21 12 -43 -2 -59 -11 -11 -7 -13 19 -9 24 3 34 0 38 -11 3 -9 23 -24
45 -34 35 -15 40 -20 34 -42 -5 -21 -3 -25 15 -25 28 0 90 -65 98 -101 3 -16
12 -29 19 -29 8 0 14 -3 14 -7 0 -5 18 -17 40 -27 28 -14 43 -28 51 -53 6 -18
16 -33 22 -32 31 4 39 -2 34 -22 -4 -15 -2 -19 8 -15 24 9 28 -31 5 -54 -17
-17 -32 -21 -72 -19 -41 2 -53 -1 -66 -18 -24 -30 -78 -54 -105 -48 -16 5 -29
-1 -46 -21 -23 -26 -25 -27 -32 -8 -4 10 -8 14 -8 8 -1 -6 -15 -14 -32 -18
-16 -3 -37 -13 -46 -21 -8 -9 -28 -19 -44 -22 -16 -3 -29 -9 -29 -13 0 -4 -12
-11 -27 -15 -32 -8 -43 -21 -43 -52 0 -13 -4 -23 -9 -23 -12 0 -33 -54 -29
-76 3 -21 -28 -32 -45 -15 -7 7 -6 15 4 27 16 19 16 25 23 279 14 548 19 665
27 665 5 0 12 -14 16 -31z m7517 -17 c-4 -6 -53 32 -54 41 0 5 13 -2 29 -15
15 -13 27 -25 25 -26z m-5168 -141 c0 -92 4 -173 8 -179 4 -6 4 -23 0 -37 -5
-19 -12 -25 -28 -23 -20 3 -21 8 -21 132 0 95 3 130 13 133 18 7 16 83 -3 83
-17 0 -18 2 -8 26 6 16 7 16 14 -2 6 -14 8 -11 8 15 1 19 4 31 8 27 4 -4 8
-83 9 -175z m2410 134 c-7 -27 -36 -35 -36 -10 0 8 -4 15 -10 15 -23 0 -8 19
18 22 35 4 36 4 28 -27z m-3557 8 c3 -6 22 -13 42 -16 20 -2 48 -12 62 -22 15
-9 50 -19 78 -21 63 -4 78 -14 21 -14 -23 0 -42 -4 -42 -9 0 -15 -94 10 -118
33 -20 18 -35 21 -93 20 -38 -1 -69 2 -69 6 0 5 -9 12 -20 15 -11 3 -20 11
-20 17 0 14 150 5 159 -9z m3000 -9 l20 -26 -21 -28 c-12 -16 -18 -36 -14 -45
3 -9 -1 -29 -9 -45 -8 -16 -15 -51 -15 -77 0 -26 -4 -64 -9 -83 -5 -19 -12
-48 -16 -64 -5 -22 -9 -26 -18 -17 -16 16 -11 139 9 211 8 30 24 75 37 99 16
32 19 45 10 48 -15 5 -18 53 -4 53 5 0 19 -12 30 -26z m61 6 c0 -5 -4 -10 -10
-10 -5 0 -10 5 -10 10 0 6 5 10 10 10 6 0 10 -4 10 -10z m67 -22 c-3 -7 -5 -2
-5 12 0 14 2 19 5 13 2 -7 2 -19 0 -25z m-5907 2 c0 -5 -5 -10 -11 -10 -5 0
-7 5 -4 10 3 6 8 10 11 10 2 0 4 -4 4 -10z m9184 -38 c-4 -6 -53 32 -54 41 0
5 13 -2 29 -15 15 -13 27 -25 25 -26z m-2976 28 c6 0 12 -9 12 -20 0 -11 5
-20 10 -20 6 0 5 -6 -2 -14 -9 -10 -15 -11 -20 -2 -6 8 -8 8 -8 0 0 -17 -29
-25 -49 -14 -31 16 -33 -3 -4 -27 24 -19 26 -24 13 -32 -10 -7 -16 -7 -18 -1
-2 6 -7 8 -12 5 -5 -3 -19 15 -31 40 -14 27 -28 44 -36 41 -7 -3 -15 0 -19 5
-3 6 -19 18 -34 27 -26 17 -24 17 79 15 58 -1 112 -3 119 -3z m-6298 -45 c-7
-8 -17 -15 -23 -15 -6 0 -2 7 9 15 25 19 30 19 14 0z m9334 -14 c-2 -3 -12 3
-22 13 -16 17 -16 18 5 5 12 -7 20 -15 17 -18z m-1641 6 c-4 -6 -8 -29 -8 -50
-1 -29 -8 -43 -30 -61 -26 -21 -29 -29 -27 -72 2 -27 5 -57 8 -66 4 -14 0 -18
-18 -18 -16 0 -27 9 -36 30 -16 35 -12 94 6 96 6 1 17 2 22 3 6 0 10 8 10 16
0 8 7 15 15 15 17 0 20 16 5 25 -12 8 -13 36 -1 67 6 15 18 24 35 26 19 1 25
-2 19 -11z m487 -43 c0 -15 -56 -19 -77 -6 -17 11 -2 29 27 34 28 4 50 -8 50
-28z m-5000 14 c0 -10 2 -10 8 -1 6 9 17 5 40 -16 31 -29 31 -31 18 -62 -18
-43 -30 -46 -45 -13 -9 20 -9 30 0 40 7 8 8 18 4 22 -4 4 -10 1 -12 -5 -6 -16
-14 -16 -48 -3 -21 8 -25 13 -16 24 6 7 8 16 4 19 -3 4 6 7 20 7 15 0 27 -6
27 -12z m6243 -37 c-2 -3 -16 8 -31 24 l-27 28 31 -24 c17 -13 30 -26 27 -28z
m-3133 35 c0 -3 -4 -8 -10 -11 -5 -3 -10 -1 -10 4 0 6 5 11 10 11 6 0 10 -2
10 -4z m-6370 -11 c0 -2 -10 -9 -22 -15 -22 -11 -22 -10 -4 4 21 17 26 19 26
11z m-64 -40 c-11 -8 -25 -15 -30 -15 -6 1 0 7 14 15 32 19 40 18 16 0z m8423
-1 c9 -8 -10 -34 -25 -34 -16 0 -43 26 -44 42 0 7 60 0 69 -8z m1234 -43 c-2
-3 -16 8 -31 24 l-27 28 31 -24 c17 -13 30 -26 27 -28z m-3222 2 c1 -10 3 -28
4 -40 1 -14 -3 -23 -11 -23 -16 0 -20 6 -29 48 -6 28 -4 32 14 32 13 0 21 -7
22 -17z m3283 -32 c-2 -3 -12 3 -22 13 -16 17 -16 18 5 5 12 -7 20 -15 17 -18z
m-9874 -16 c-7 -8 -17 -15 -23 -15 -6 0 -2 7 9 15 25 19 30 19 14 0z m9963
-44 c-2 -3 -16 8 -31 24 l-27 28 31 -24 c17 -13 30 -26 27 -28z m-6419 -69 c4
-6 1 -24 -7 -39 -14 -26 -15 -26 -26 -5 -8 14 -8 29 -1 47 5 14 11 38 11 53 1
23 2 22 8 -8 4 -20 10 -41 15 -48z m-3634 53 c-7 -8 -18 -15 -24 -15 -6 0 -2
7 8 15 25 19 32 19 16 0z m1200 -20 c8 -20 20 -41 27 -47 7 -6 13 -19 13 -29
0 -11 5 -19 10 -19 6 0 10 -7 10 -15 0 -8 4 -15 9 -15 5 0 14 -14 22 -31 7
-18 25 -46 41 -63 15 -17 28 -40 28 -53 0 -12 4 -25 10 -28 11 -7 60 -102 60
-117 0 -6 11 -19 25 -30 18 -14 25 -29 25 -56 0 -20 7 -46 15 -56 10 -14 15
-15 15 -6 0 12 2 12 14 0 18 -19 31 -90 16 -90 -5 0 -10 -5 -10 -11 0 -6 12
-9 26 -7 24 3 26 0 28 -39 1 -23 -1 -40 -5 -37 -4 2 -9 -6 -11 -18 -3 -21 -5
-20 -21 11 -9 19 -17 39 -17 45 0 6 -9 17 -19 23 -26 16 -45 82 -29 100 8 10
6 13 -7 13 -19 0 -40 22 -55 58 -5 12 -16 22 -24 22 -13 0 -17 8 -52 103 -19
53 -22 56 -58 59 -14 1 -26 8 -26 15 0 16 -29 16 -55 0 -22 -13 -22 -14 -31
-89 -8 -78 -23 -120 -40 -114 -16 6 -15 12 -17 -144 -2 -109 -3 -115 -22 -112
-65 11 -82 16 -101 33 -11 11 -31 22 -44 24 -46 9 -95 27 -105 40 -6 7 -24 15
-42 19 -17 4 -48 16 -68 26 -35 18 -65 18 -65 0 0 -5 -11 -22 -25 -39 l-26
-30 24 -56 c13 -31 31 -65 40 -76 9 -10 17 -26 17 -34 0 -9 15 -31 34 -50 30
-30 34 -39 29 -69 -3 -19 -3 -43 1 -52 6 -16 8 -15 21 2 13 18 15 17 30 -19
15 -37 14 -44 -14 -86 -17 -26 -41 6 -41 56 0 27 -4 42 -10 38 -5 -3 -10 -3
-10 2 0 4 -11 21 -24 36 -14 16 -22 35 -20 42 3 7 -8 22 -25 34 -16 12 -40 42
-52 69 -13 26 -29 53 -36 60 -7 7 -13 17 -13 22 0 5 -11 19 -25 32 -13 13 -31
43 -39 66 -9 24 -27 57 -41 74 -14 16 -25 40 -25 53 0 12 -7 26 -16 29 -11 4
-14 14 -9 35 5 23 2 30 -13 35 -24 8 -60 46 -43 46 15 0 50 -20 79 -44 12 -11
22 -15 22 -9 0 16 123 -14 138 -34 7 -10 16 -18 20 -19 4 0 14 -3 22 -7 8 -3
29 -10 45 -15 17 -5 30 -13 30 -18 -1 -5 33 -21 75 -35 48 -17 76 -32 78 -42
3 -13 14 -17 46 -17 23 0 52 -7 64 -16 12 -8 28 -13 35 -11 6 2 20 -2 30 -11
16 -14 17 -13 17 15 0 16 9 48 20 71 22 46 25 56 10 47 -5 -3 -10 1 -10 9 0 9
5 16 10 16 6 0 10 22 10 48 0 27 3 52 7 56 9 9 12 33 17 161 5 135 12 172 37
178 20 5 28 57 9 57 -11 0 -14 53 -3 63 12 13 19 7 33 -28z m5553 -34 c4 -31
14 -58 26 -70 22 -22 27 -41 11 -41 -5 0 -10 -8 -10 -17 0 -15 -2 -16 -10 -3
-5 8 -10 27 -10 43 0 16 -5 27 -14 27 -16 0 -28 52 -20 86 10 38 21 28 27 -25z
m3420 -20 c-2 -3 -20 12 -41 34 l-37 39 41 -35 c22 -19 39 -36 37 -38z
m-10213 54 c0 -2 -10 -9 -22 -15 -22 -11 -22 -10 -4 4 21 17 26 19 26 11z
m8025 -21 c22 -4 48 -7 58 -6 11 0 17 -6 17 -19 0 -16 7 -19 39 -19 40 0 61
-14 45 -30 -5 -5 -35 -4 -67 2 -81 14 -118 5 -142 -35 -10 -17 -20 -37 -20
-44 0 -6 -4 -15 -8 -19 -4 -4 -7 -20 -7 -34 0 -38 -24 -57 -45 -36 -13 13 -15
27 -9 72 6 52 9 57 43 72 22 10 30 17 21 19 -12 3 -15 13 -12 41 5 35 31 69
42 52 3 -4 23 -12 45 -16z m-2598 10 c-3 -3 -12 -4 -19 -1 -8 3 -5 6 6 6 11 1
17 -2 13 -5z m261 -1 c-10 -2 -18 -9 -18 -14 0 -5 -7 -9 -16 -9 -8 0 -13 4 -9
10 3 5 -23 11 -62 13 -54 2 -48 3 27 4 52 0 87 -1 78 -4z m-5783 -53 c-10 -11
-22 -20 -28 -20 -5 0 1 9 14 20 31 25 37 25 14 0z m9284 6 c11 -13 13 -43 12
-176 -1 -193 2 -255 10 -258 5 -2 9 -11 9 -19 0 -13 11 -14 78 -8 47 4 80 12
85 20 4 7 28 21 55 31 26 10 53 26 60 36 8 10 19 18 25 17 23 -4 72 14 87 31
8 10 24 19 35 20 39 4 75 0 75 -8 0 -13 -76 -36 -89 -28 -7 4 -11 0 -11 -12 0
-33 -37 -62 -80 -62 -31 0 -43 -5 -56 -25 -17 -27 -86 -52 -92 -34 -2 5 -12
-5 -22 -23 -14 -26 -26 -35 -59 -41 -36 -7 -45 -14 -57 -43 -8 -19 -19 -32
-24 -29 -6 3 -10 -5 -10 -18 0 -14 -7 -30 -15 -37 -8 -7 -15 -18 -15 -25 0 -7
7 -15 15 -19 8 -3 15 -12 15 -21 0 -8 5 -15 10 -15 6 0 10 -16 10 -35 0 -36
-8 -43 -28 -23 -8 8 -15 8 -25 0 -11 -9 -16 -7 -26 14 -6 14 -9 29 -6 34 3 4
-2 24 -10 43 -8 19 -12 37 -9 40 3 2 -9 9 -25 15 -40 14 -94 5 -122 -21 -18
-17 -106 -43 -115 -34 -2 2 -1 13 3 25 4 16 13 22 34 22 34 0 99 37 99 56 0 9
11 14 29 14 17 0 33 5 37 11 3 6 14 9 24 6 38 -10 44 7 47 130 5 180 5 229 -1
338 -5 114 9 152 43 111z m1085 -25 c-2 -3 -12 3 -22 13 -16 17 -16 18 5 5 12
-7 20 -15 17 -18z m-10474 -56 c-23 -19 -46 -35 -52 -35 -11 0 73 68 85 69 5
1 -10 -15 -33 -34z m10594 -33 c-5 -7 -52 32 -65 53 -7 11 6 4 28 -15 22 -19
38 -37 37 -38z m-2090 46 c20 -8 23 -14 15 -24 -12 -15 -65 -9 -88 10 -11 9
-9 12 10 17 35 10 36 10 63 -3z m-4734 -23 c-13 -14 -31 -25 -39 -25 -13 0
-13 2 -2 9 7 5 11 13 7 19 -6 10 11 18 43 21 10 1 7 -7 -9 -24z m4818 -25 c12
0 13 -3 5 -11 -8 -8 -17 -7 -35 6 -16 12 -18 16 -5 11 10 -3 26 -6 35 -6z
m-4945 -32 c-7 -12 -83 -9 -83 3 0 6 8 8 19 4 11 -3 25 0 32 8 10 10 16 11 25
3 7 -6 10 -14 7 -18z m-3723 19 c0 -2 -12 -14 -27 -28 l-28 -24 24 28 c23 25
31 32 31 24z m10763 -46 c-2 -3 -16 8 -31 24 l-27 28 31 -24 c17 -13 30 -26
27 -28z m-10833 -16 c-7 -8 -17 -15 -23 -15 -6 0 -2 7 9 15 25 19 30 19 14 0z
m3053 1 c22 8 29 -10 12 -32 -15 -18 -16 -18 -35 5 -23 27 -27 50 -6 32 7 -6
20 -9 29 -5z m7870 -45 c-2 -3 -16 8 -31 24 l-27 28 31 -24 c17 -13 30 -26 27
-28z m-7793 -5 c0 -6 9 -17 20 -24 11 -7 20 -17 20 -22 0 -16 -70 -12 -86 5
-13 13 -12 16 5 26 10 7 17 19 14 26 -4 9 0 11 11 7 9 -3 16 -11 16 -18z
m-3205 -6 c-10 -11 -22 -20 -28 -20 -5 0 1 9 14 20 31 25 37 25 14 0z m8285
-5 c1 15 4 12 11 -10 5 -18 5 -41 -1 -58 -5 -15 -6 -35 -3 -45 5 -11 -3 -7
-20 10 -29 29 -35 65 -15 101 11 21 11 21 19 2 8 -20 8 -20 9 0z m2863 -104
c-4 -6 -80 62 -87 78 -4 8 15 -5 42 -30 26 -24 47 -46 45 -48z m-11263 29
c-19 -16 -39 -30 -44 -30 -5 0 8 13 30 30 50 38 59 38 14 0z m8320 -72 c0 -16
-3 -19 -11 -11 -6 6 -8 16 -5 22 11 17 16 13 16 -11z m3069 -45 c2 -2 -2 -3
-10 -2 -8 0 -27 17 -43 37 l-30 37 39 -35 c22 -19 42 -36 44 -37z m-11510 18
c-13 -11 -28 -20 -34 -21 -5 0 4 11 20 24 36 29 49 25 14 -3z m8541 -27 c0 -8
-4 -12 -10 -9 -5 3 -10 10 -10 16 0 5 5 9 10 9 6 0 10 -7 10 -16z m-8685 -86
c-63 -65 -88 -87 -98 -88 -9 0 134 139 143 140 2 0 -18 -23 -45 -52z m8858 35
c-2 -7 3 -14 10 -14 6 -1 -1 -5 -18 -8 -35 -8 -54 -3 -34 10 11 7 10 9 -3 9
-9 0 -20 5 -23 11 -5 7 6 9 31 7 25 -2 38 -8 37 -15z m2970 -93 c-2 -2 -29 22
-61 55 l-57 59 61 -55 c34 -30 59 -56 57 -59z m-8963 35 c0 -8 -9 -15 -20 -15
-20 0 -26 11 -13 23 12 13 33 7 33 -8z m6132 -7 c12 -20 3 -33 -21 -31 -30 4
-72 33 -65 45 9 13 75 2 86 -14z m1945 -13 c20 -19 41 -35 46 -35 20 0 79 -53
89 -80 7 -21 14 -27 29 -23 14 4 22 0 25 -14 3 -10 13 -19 23 -20 24 -2 88
-41 95 -58 3 -8 13 -15 21 -15 20 0 135 -108 135 -127 0 -7 8 -13 19 -13 10 0
27 -12 37 -26 10 -14 29 -30 42 -35 19 -7 21 -12 12 -29 -15 -29 -43 -25 -63
9 -9 16 -28 32 -42 35 -16 4 -25 13 -25 25 0 14 -10 21 -35 25 -19 4 -46 18
-60 31 -18 19 -35 25 -70 25 -40 0 -50 -5 -83 -40 -20 -22 -54 -58 -74 -80
-21 -22 -38 -44 -38 -50 0 -6 -6 -13 -14 -16 -8 -3 -17 -16 -20 -30 -9 -35
-37 -64 -62 -64 -15 0 -27 -11 -38 -35 -9 -19 -19 -35 -21 -35 -17 0 -55 22
-55 32 0 9 3 8 10 -2 8 -13 10 -13 10 2 0 28 34 78 53 78 9 0 17 5 17 11 0 6
14 27 30 46 17 18 30 40 30 47 0 8 7 17 15 20 9 3 20 19 26 34 5 16 21 35 33
42 36 19 58 77 54 142 -2 40 -6 54 -15 51 -7 -3 -13 -1 -13 3 0 5 -18 18 -40
28 -40 19 -44 25 -40 60 1 10 -3 15 -8 12 -15 -9 -66 13 -83 37 -15 21 -11 67
6 67 3 0 22 -16 42 -35z m-1797 -55 c0 -5 -11 -10 -25 -10 -14 0 -25 5 -25 10
0 6 11 10 25 10 14 0 25 -4 25 -10z m-9321 -47 c-40 -44 -94 -92 -102 -93 -7
0 114 119 122 120 3 0 -6 -12 -20 -27z m12280 -150 c2 -2 0 -3 -6 -3 -11 0
-173 156 -173 167 0 4 39 -31 88 -77 48 -47 89 -86 91 -87z m-9609 127 c13 -8
13 -11 -2 -27 -21 -20 -45 -5 -35 21 7 18 16 20 37 6z m7151 -32 c-6 -17 -18
-24 -43 -26 -45 -4 -48 24 -4 37 51 15 56 13 47 -11z m-143 -56 c9 -7 8 -13
-8 -27 -19 -17 -22 -17 -36 -3 -28 28 9 52 44 30z m-9844 -47 c-15 -20 -41
-45 -58 -57 -20 -14 -12 -2 24 35 30 31 56 57 58 57 2 0 -9 -16 -24 -35z
m10377 -75 c5 0 4 -9 -3 -20 -10 -16 -10 -24 0 -40 7 -12 8 -20 2 -20 -13 0
-13 -37 0 -42 5 -1 10 -16 11 -33 3 -48 -3 -63 -11 -30 l-8 30 -1 -34 c-1 -48
-15 -29 -18 26 -2 28 -10 51 -20 58 -13 10 -15 23 -9 71 4 32 14 67 24 77 16
19 17 18 20 -12 2 -17 8 -31 13 -31z m-3721 -95 c74 -8 209 -19 300 -24 91 -6
199 -17 240 -25 41 -8 143 -22 225 -31 83 -9 170 -20 195 -25 96 -19 236 -51
265 -60 17 -5 84 -23 150 -39 240 -60 601 -177 875 -285 72 -29 384 -172 650
-299 104 -50 239 -130 573 -341 120 -76 402 -284 617 -454 170 -136 302 -256
510 -468 208 -212 325 -351 505 -597 55 -76 137 -188 182 -250 45 -62 124
-182 174 -267 51 -85 129 -218 175 -295 80 -134 312 -607 376 -765 52 -129
148 -431 168 -530 11 -52 31 -122 44 -155 101 -254 147 -447 230 -960 59 -363
90 -894 66 -1120 -30 -276 -43 -378 -56 -441 -8 -39 -21 -125 -29 -192 -21
-172 -44 -274 -165 -737 -34 -129 -123 -394 -208 -620 -144 -383 -383 -842
-647 -1245 -58 -88 -382 -525 -482 -650 -115 -143 -410 -452 -618 -647 -190
-178 -281 -254 -529 -439 -276 -208 -511 -368 -696 -474 -41 -23 -107 -63
-146 -87 -111 -68 -589 -295 -784 -372 -376 -149 -594 -221 -672 -221 l-47 0
-60 84 c-33 46 -66 86 -73 89 -34 12 -55 -11 -77 -88 -13 -42 -25 -94 -28
-116 -3 -21 -11 -43 -17 -48 -39 -30 -311 -89 -541 -116 -71 -8 -178 -24 -237
-35 -59 -10 -174 -22 -255 -26 -82 -3 -176 -12 -211 -20 -89 -20 -723 -20
-837 0 -44 8 -138 17 -210 21 -71 3 -186 15 -255 25 -69 11 -170 24 -225 30
-183 20 -337 50 -610 121 -458 119 -469 122 -885 281 -347 133 -884 415 -1275
670 -207 135 -594 431 -785 600 -161 142 -476 460 -661 668 -101 113 -432 553
-534 710 -143 220 -357 591 -420 730 -34 74 -84 178 -110 230 -57 113 -145
333 -209 523 -26 76 -53 155 -61 175 -29 78 -84 273 -115 407 -17 77 -42 178
-55 225 -40 146 -74 339 -110 633 -43 339 -54 661 -36 990 11 199 56 562 86
690 8 34 19 96 26 137 11 78 117 507 163 665 15 50 49 147 77 218 27 70 67
178 88 240 55 161 115 301 236 551 133 274 164 328 351 611 195 295 282 417
397 557 51 62 130 163 177 223 99 130 551 592 718 734 260 220 750 576 942
683 36 20 124 70 195 112 149 88 299 165 468 242 64 30 171 79 237 109 67 30
178 75 248 100 70 25 192 70 272 99 363 134 815 252 1155 302 94 13 208 31
255 39 132 22 278 33 760 59 120 6 464 -4 600 -19z m-7024 -176 c-85 -85 -172
-170 -193 -189 -21 -19 47 52 152 157 104 106 191 191 192 189 2 -2 -66 -72
-151 -157z m2431 32 c-5 -39 -36 -35 -54 6 -12 30 -12 37 -1 44 7 5 19 7 26 4
6 -2 12 3 13 13 0 9 5 4 10 -13 5 -16 7 -41 6 -54z m-1405 11 c22 -22 -8 -35
-87 -38 -77 -2 -78 -3 -138 -56 -15 -13 -22 -14 -32 -5 -10 9 -9 16 4 34 9 12
22 23 29 23 6 0 12 5 12 10 0 6 7 10 15 10 8 0 15 4 15 8 0 9 110 29 148 27
12 -1 28 -7 34 -13z m-272 -107 c9 -11 7 -19 -13 -39 -33 -33 -39 -50 -46
-131 l-6 -70 -23 49 c-27 60 -27 70 0 109 13 18 23 34 23 37 0 8 40 59 46 60
4 0 12 -7 19 -15z m10774 -14 c3 -5 -1 -11 -9 -15 -9 -3 -15 0 -15 9 0 16 16
20 24 6z m-56 -44 c-2 -5 5 -13 15 -18 23 -14 21 -35 -5 -53 -29 -20 -44 -20
-52 1 -10 24 13 85 30 81 8 -2 14 -7 12 -11z m1108 -92 c-35 -36 -70 -7 -35
29 23 24 24 24 37 5 11 -16 11 -21 -2 -34z m-1167 -40 c-7 -19 -19 -35 -26
-35 -7 0 -13 -5 -13 -10 0 -20 -59 -72 -75 -66 -22 8 -19 43 5 49 12 3 20 14
20 26 0 12 6 21 15 21 8 0 15 5 15 12 0 6 12 24 28 39 22 22 29 25 35 13 5 -8
3 -30 -4 -49z m2021 -30 c0 -5 -11 4 -25 19 -14 15 -25 32 -25 37 0 6 11 -3
25 -19 14 -17 25 -33 25 -37z m-940 30 c0 -17 -6 -25 -17 -26 -16 0 -15 -1 1
-8 19 -7 19 -8 -2 -13 -15 -4 -22 -14 -22 -31 0 -17 -11 -32 -35 -48 -19 -13
-38 -32 -41 -42 -3 -9 -15 -22 -26 -28 -15 -8 -19 -8 -14 0 4 6 5 11 2 11 -3
0 -18 -18 -33 -41 -26 -39 -48 -129 -31 -129 4 0 8 -4 8 -10 0 -5 -7 -10 -15
-10 -8 0 -15 4 -15 9 0 4 -11 6 -24 4 -14 -3 -39 2 -57 11 -32 16 -55 13 -43
-5 3 -6 -3 -13 -15 -16 -12 -3 -21 -10 -21 -15 0 -5 -12 -20 -26 -33 -17 -16
-22 -25 -13 -25 8 0 -5 -9 -28 -20 -39 -17 -48 -29 -44 -53 1 -5 -11 -7 -26
-5 -20 2 -29 9 -31 25 -3 17 1 21 11 17 9 -3 26 8 44 30 15 20 35 36 43 36 17
0 80 56 80 71 0 19 65 74 84 71 10 -2 16 0 12 6 -3 5 19 33 49 61 30 29 60 61
65 71 6 11 15 20 21 20 5 0 26 17 44 38 19 20 35 31 35 23 0 -14 14 -7 15 7 3
33 29 62 63 71 1 1 2 -10 2 -24z m188 -13 c9 -6 6 -12 -12 -20 -21 -9 -23 -8
-19 9 6 21 11 23 31 11z m-11259 -53 c29 -9 40 -17 36 -27 -3 -7 -5 -20 -5
-27 0 -10 -9 -11 -37 -4 -21 5 -60 9 -88 10 -27 0 -66 6 -85 13 -28 11 -40 11
-60 1 -14 -7 -37 -18 -52 -25 -15 -7 -25 -16 -23 -20 8 -13 -24 -20 -98 -20
-71 0 -71 0 -50 19 13 13 43 22 81 27 42 4 68 13 88 31 23 19 37 23 73 20 24
-2 70 2 100 9 31 6 61 10 67 9 7 -2 31 -9 53 -16z m-697 -14 c34 -42 54 -54
92 -60 62 -10 76 -15 76 -30 0 -7 -7 -16 -16 -19 -27 -10 -94 -7 -109 7 -59
50 -75 70 -75 92 0 28 13 32 32 10z m-1052 -8 c0 -2 -9 -15 -21 -28 -12 -13
-26 -31 -33 -39 -6 -8 -25 -26 -41 -40 -16 -14 -2 5 31 42 56 65 64 73 64 65z
m1834 -51 c17 -15 26 -34 26 -55 0 -17 5 -31 10 -31 7 0 7 -6 2 -17 -5 -10 -8
-34 -6 -53 4 -33 4 -34 -7 -10 -7 14 -13 30 -14 35 -1 6 -3 13 -5 18 -1 4 -3
10 -5 15 -5 20 -18 50 -31 75 -8 15 -12 32 -9 37 9 14 11 13 39 -14z m12106
-91 c11 -13 10 -14 -4 -9 -9 3 -16 10 -16 15 0 13 6 11 20 -6z m-14090 -39 c0
-2 -8 -10 -17 -17 -16 -13 -17 -12 -4 4 13 16 21 21 21 13z m-47 -60 c-10 -13
-27 -30 -38 -36 -11 -7 -4 4 14 24 40 42 50 47 24 12z m14252 -54 c-5 -6 -45
37 -45 49 0 5 11 -3 24 -18 13 -15 23 -29 21 -31z m-12195 -9 c-10 -42 -13
-45 -42 -47 -16 -1 -24 -8 -26 -23 -2 -15 -10 -23 -23 -23 -19 0 -19 1 -2 25
10 13 21 25 26 25 4 0 7 7 7 15 0 17 28 66 45 77 16 11 23 -12 15 -49z m-1323
-3 c3 -11 9 -20 12 -20 4 0 8 -14 8 -32 0 -31 -1 -31 -15 -10 -8 12 -23 22
-32 22 -21 0 -29 16 -22 43 6 24 43 22 49 -3z m-871 -100 c-20 -22 -36 -37
-36 -34 0 9 64 81 69 78 2 -2 -13 -22 -33 -44z m924 0 c0 -11 -2 -20 -4 -20
-2 0 -6 9 -9 20 -3 11 -1 20 4 20 5 0 9 -9 9 -20z m1121 -38 c-11 -20 -84 -42
-136 -41 -31 0 -36 2 -20 9 11 5 34 9 52 9 18 1 44 11 60 25 30 26 59 25 44
-2z m12464 8 c3 -5 1 -10 -4 -10 -6 0 -11 5 -11 10 0 6 2 10 4 10 3 0 8 -4 11
-10z m-1955 -45 c0 -17 -2 -18 -24 -9 -23 9 -20 24 4 24 11 0 20 -7 20 -15z
m-12640 -35 c-12 -16 -24 -30 -26 -30 -3 0 4 14 16 30 12 17 24 30 26 30 3 0
-4 -13 -16 -30z m14685 -48 c-5 -6 -45 37 -45 49 0 5 11 -3 24 -18 13 -15 23
-29 21 -31z m-14732 -23 c-10 -16 -29 -40 -42 -52 -13 -13 -7 1 15 30 44 60
54 68 27 22z m14822 -89 c3 -5 1 -10 -4 -10 -6 0 -11 5 -11 10 0 6 2 10 4 10
3 0 8 -4 11 -10z m-14909 -28 c-17 -16 -18 -16 -5 5 7 12 15 20 18 17 3 -2 -3
-12 -13 -22z m14969 -62 c3 -5 1 -10 -4 -10 -6 0 -11 5 -11 10 0 6 2 10 4 10
3 0 8 -4 11 -10z m-15035 -39 c-29 -42 -36 -39 -8 3 13 19 24 33 26 31 3 -2
-6 -18 -18 -34z m730 29 c0 -5 -5 -10 -11 -10 -5 0 -7 5 -4 10 3 6 8 10 11 10
2 0 4 -4 4 -10z m-18 -47 c-7 -3 -22 -23 -34 -46 -11 -23 -29 -53 -40 -68 -11
-14 -20 -32 -21 -40 -2 -8 -11 -24 -22 -35 -52 -54 -81 -98 -92 -140 -11 -43
-10 -47 8 -51 10 -3 19 -9 19 -14 0 -5 6 -9 13 -9 7 0 19 -9 27 -21 8 -11 30
-27 48 -35 18 -7 31 -18 28 -23 -3 -5 14 -21 38 -35 32 -19 43 -31 39 -44 -3
-14 -12 -17 -40 -14 -22 3 -30 7 -23 12 15 9 -3 20 -62 39 -21 7 -40 21 -43
32 -7 20 -58 52 -68 42 -4 -3 -9 2 -13 11 -3 9 -13 16 -20 16 -21 0 -64 30
-64 45 0 7 9 11 23 8 14 -3 31 2 40 12 22 22 21 35 -2 35 -18 0 -19 2 -7 25 7
14 22 33 33 43 11 9 23 28 28 41 10 32 105 123 122 117 7 -3 13 -1 13 4 0 6
-7 10 -15 10 -12 0 -13 4 -3 25 6 14 17 25 24 25 7 0 17 6 21 13 10 16 47 36
53 29 3 -2 -1 -7 -8 -9z m14402 -51 c17 -17 27 -32 23 -32 -9 0 -57 53 -57 64
0 5 1 7 3 5 1 -2 15 -19 31 -37z m-15234 -114 c-23 -35 -23 -31 -1 15 8 15 16
25 19 22 2 -2 -5 -19 -18 -37z m15380 -106 c0 -10 -59 62 -60 72 0 5 14 -8 30
-29 17 -21 30 -40 30 -43z m-15429 35 c-10 -9 -11 -8 -5 6 3 10 9 15 12 12 3
-3 0 -11 -7 -18z m14629 -22 c0 -14 -4 -25 -10 -25 -11 0 -14 33 -3 43 11 11
13 8 13 -18z m-14647 -10 c-3 -9 -8 -14 -10 -11 -3 3 -2 9 2 15 9 16 15 13 8
-4z m15467 -48 c0 -5 -4 -5 -10 -2 -5 3 -10 14 -10 23 0 15 2 15 10 2 5 -8 10
-19 10 -23z m-860 2 c0 -5 -4 -9 -10 -9 -5 0 -10 7 -10 16 0 8 5 12 10 9 6 -3
10 -10 10 -16z m-14649 -12 c-10 -9 -11 -8 -5 6 3 10 9 15 12 12 3 -3 0 -11
-7 -18z m-60 -90 c-10 -9 -11 -8 -5 6 3 10 9 15 12 12 3 -3 0 -11 -7 -18z
m15658 -40 c12 -15 12 -17 -3 -11 -9 3 -16 13 -16 22 0 8 1 13 3 11 1 -2 9
-12 16 -22z m-15693 -35 c-17 -16 -18 -16 -5 5 7 12 15 20 18 17 3 -2 -3 -12
-13 -22z m1201 -4 c-15 -9 -19 -4 -11 16 5 14 9 15 15 5 5 -8 3 -17 -4 -21z
m14517 -13 c3 -8 1 -15 -4 -15 -6 0 -10 7 -10 15 0 8 2 15 4 15 2 0 6 -7 10
-15z m-15743 -28 c-10 -9 -11 -8 -5 6 3 10 9 15 12 12 3 -3 0 -11 -7 -18z
m1199 -2 c0 -16 -6 -25 -15 -25 -12 0 -13 -4 -5 -19 18 -35 12 -58 -17 -64
-16 -3 -31 -3 -35 0 -11 6 -10 41 2 48 13 8 33 46 23 44 -4 -1 -17 -1 -27 0
-26 1 -12 14 32 27 20 7 38 12 40 13 1 1 2 -10 2 -24z m-1259 -98 c-10 -9 -11
-8 -5 6 3 10 9 15 12 12 3 -3 0 -11 -7 -18z m1732 -81 c4 -10 1 -13 -8 -9 -8
3 -12 9 -9 14 7 12 11 11 17 -5z m-1792 -29 c-10 -9 -11 -8 -5 6 3 10 9 15 12
12 3 -3 0 -11 -7 -18z m-21 -37 c-6 -11 -13 -20 -16 -20 -2 0 0 9 6 20 6 11
13 20 16 20 2 0 0 -9 -6 -20z m-44 -68 c-17 -16 -18 -16 -5 5 7 12 15 20 18
17 3 -2 -3 -12 -13 -22z m1740 -17 c-5 -19 -13 -25 -34 -24 -24 0 -25 1 -7 9
18 7 19 8 3 15 -25 10 -22 20 10 31 30 11 37 4 28 -31z m14374 24 c0 -6 -4 -7
-10 -4 -5 3 -10 11 -10 16 0 6 5 7 10 4 6 -3 10 -11 10 -16z m-16168 -111 c-8
-8 -9 -4 -5 13 4 13 8 18 11 10 2 -7 -1 -18 -6 -23z m16222 -3 c3 -8 1 -15 -4
-15 -6 0 -10 7 -10 15 0 8 2 15 4 15 2 0 6 -7 10 -15z m-16244 -52 c-1 -5 -12
-21 -26 -38 -26 -30 -23 -21 6 23 16 23 20 27 20 15z m16274 -19 c3 -8 2 -12
-4 -9 -6 3 -10 10 -10 16 0 14 7 11 14 -7z m-871 -21 c-7 -2 -19 -2 -25 0 -7
3 -2 5 12 5 14 0 19 -2 13 -5z m-153 -27 c20 -8 28 -16 21 -20 -6 -4 -15 -5
-20 -2 -5 3 -14 -1 -21 -9 -19 -23 -60 -19 -60 5 0 13 -5 18 -15 14 -8 -4 -15
-1 -15 4 0 6 14 10 30 10 17 -1 33 2 37 5 8 9 5 9 43 -7z m361 -8 c22 -6 39
-17 39 -23 0 -7 9 -15 20 -18 26 -7 26 -23 -1 -37 -18 -10 -25 -7 -49 20 -17
19 -35 30 -44 27 -13 -5 -46 21 -46 36 0 11 38 8 81 -5z m-15680 -61 c-10 -9
-11 -8 -5 6 3 10 9 15 12 12 3 -3 0 -11 -7 -18z m15139 -2 c0 -8 -4 -15 -10
-15 -5 0 -10 7 -10 15 0 8 5 15 10 15 6 0 10 -7 10 -15z m32 -27 c-9 -9 -12
-7 -12 12 0 19 3 21 12 12 9 -9 9 -15 0 -24z m-15201 -21 c-10 -9 -11 -8 -5 6
3 10 9 15 12 12 3 -3 0 -11 -7 -18z m1117 -38 c-17 -11 -29 21 -14 37 8 9 13
7 19 -9 5 -13 3 -23 -5 -28z m14774 7 c10 -12 17 -36 18 -53 0 -18 4 -33 9
-33 29 0 39 -32 39 -120 0 -49 -4 -90 -9 -90 -5 0 -9 19 -9 43 0 24 -7 52 -15
63 -8 10 -15 31 -15 46 0 15 -11 39 -25 54 -14 15 -25 33 -25 40 0 7 -11 26
-25 42 -18 21 -21 32 -13 34 21 7 52 -4 70 -26z m-767 4 c7 -21 0 -40 -16 -40
-5 0 -9 7 -9 16 0 8 -4 13 -9 10 -5 -3 -11 3 -14 14 -7 28 39 28 48 0z
m-13887 -67 c14 -13 29 -23 34 -23 4 0 8 -5 8 -10 0 -6 25 -37 55 -68 30 -31
55 -61 55 -67 0 -10 18 -30 83 -95 20 -20 37 -41 37 -46 0 -12 -232 -7 -240 6
-4 6 -17 6 -38 -2 -24 -10 -56 -9 -144 1 -62 8 -140 13 -173 13 -43 -2 -72 4
-99 17 -30 16 -43 18 -62 9 -17 -8 -46 -8 -106 0 -46 7 -113 12 -150 12 -70 0
-77 4 -55 34 10 13 30 19 84 21 87 5 223 -9 232 -23 4 -7 27 -8 66 -2 35 4 64
4 70 -1 5 -5 19 -9 32 -9 13 0 23 -3 23 -7 0 -5 60 -8 133 -7 196 0 184 -2
179 41 -4 27 0 40 14 50 16 12 17 15 4 23 -12 8 -13 13 -2 30 18 30 15 33 -23
27 -29 -5 -35 -3 -35 12 0 10 -16 31 -35 45 -40 31 -46 63 -12 68 12 2 26 -3
31 -12 5 -8 20 -25 34 -37z m15256 21 c3 -8 2 -12 -4 -9 -6 3 -10 10 -10 16 0
14 7 11 14 -7z m-1467 -46 c-3 -7 -5 -2 -5 12 0 14 2 19 5 13 2 -7 2 -19 0
-25z m-15085 -10 c-8 -8 -9 -4 -5 13 4 13 8 18 11 10 2 -7 -1 -18 -6 -23z
m16582 7 c3 -8 1 -15 -4 -15 -6 0 -10 7 -10 15 0 8 2 15 4 15 2 0 6 -7 10 -15z
m-16604 -68 c0 -7 -7 -22 -15 -33 -13 -17 -13 -16 -3 14 13 34 18 40 18 19z
m16627 -9 c-3 -8 -6 -5 -6 6 -1 11 2 17 5 13 3 -3 4 -12 1 -19z m-16666 -71
c-10 -9 -11 -8 -5 6 3 10 9 15 12 12 3 -3 0 -11 -7 -18z m15118 -94 c1 -39 -8
-65 -20 -57 -10 6 -12 68 -2 103 6 23 7 23 14 5 4 -10 8 -33 8 -51z m-15143
31 c-4 -9 -9 -15 -11 -12 -3 3 -3 13 1 22 4 9 9 15 11 12 3 -3 3 -13 -1 -22z
m16751 -36 c-3 -7 -5 -2 -5 12 0 14 2 19 5 13 2 -7 2 -19 0 -25z m-646 -10 c1
-18 1 -36 0 -41 0 -4 -2 -23 -4 -42 -1 -25 -6 -35 -17 -33 -21 4 -24 34 -10
95 15 60 29 69 31 21z m-16170 -81 c-10 -9 -11 -8 -5 6 3 10 9 15 12 12 3 -3
0 -11 -7 -18z m16876 -39 c-3 -8 -6 -5 -6 6 -1 11 2 17 5 13 3 -3 4 -12 1 -19z
m-16906 -31 c-10 -9 -11 -8 -5 6 3 10 9 15 12 12 3 -3 0 -11 -7 -18z m15276
-9 c-3 -8 -6 -5 -6 6 -1 11 2 17 5 13 3 -3 4 -12 1 -19z m-15300 -70 c-3 -8
-6 -5 -6 6 -1 11 2 17 5 13 3 -3 4 -12 1 -19z m15359 -22 c3 -8 13 -12 22 -9
11 3 13 2 6 -4 -6 -4 -14 -15 -17 -23 -4 -12 -6 -11 -6 3 -1 9 -8 17 -16 17
-8 0 -15 7 -15 15 0 19 19 20 26 1z m1631 -48 c-3 -7 -5 -2 -5 12 0 14 2 19 5
13 2 -7 2 -19 0 -25z m-17026 -15 c-12 -20 -14 -14 -5 12 4 9 9 14 11 11 3 -2
0 -13 -6 -23z m15473 12 c17 -13 17 -15 3 -20 -17 -7 -57 11 -57 25 0 15 32
11 54 -5z m-15500 -109 c-3 -9 -10 -16 -15 -16 -5 0 -4 9 3 20 14 22 21 20 12
-4z m-32 -78 c-8 -8 -9 -4 -5 13 4 13 8 18 11 10 2 -7 -1 -18 -6 -23z m16588
-40 c-1 -26 -3 -30 -10 -16 -6 9 -7 23 -4 32 9 25 14 19 14 -16z m592 3 c2
-17 1 -28 -4 -25 -8 5 -12 54 -4 54 2 0 6 -13 8 -29z m-17210 -53 c-6 -6 -7 0
-4 19 5 21 7 23 10 9 2 -10 0 -22 -6 -28z m1578 1 c9 0 17 -9 17 -20 2 -16 -5
-19 -42 -19 -47 0 -140 -34 -131 -49 3 -4 -3 -16 -14 -26 -11 -10 -20 -26 -20
-37 0 -11 -7 -18 -18 -18 -15 0 -18 -6 -14 -29 5 -35 -8 -63 -25 -53 -10 6
-10 16 -1 44 17 56 3 103 -37 128 -31 19 -43 21 -132 15 -54 -4 -112 -11 -129
-16 -74 -22 -185 -6 -155 24 12 12 160 30 229 28 29 -1 72 5 95 13 23 8 53 12
67 9 14 -2 36 0 50 6 21 9 119 9 260 0z m-1608 -81 c-8 -8 -9 -4 -5 13 4 13 8
18 11 10 2 -7 -1 -18 -6 -23z m888 8 c0 -6 -15 -17 -33 -24 -29 -10 -39 -9
-73 7 -45 22 -36 29 41 33 57 3 65 2 65 -16z m16383 4 c3 -11 1 -18 -4 -14 -5
3 -9 12 -9 20 0 20 7 17 13 -6z m-16633 0 c0 -5 -7 -10 -16 -10 -8 0 -12 5 -9
10 3 6 10 10 16 10 5 0 9 -4 9 -10z m16657 -72 c-3 -8 -6 -5 -6 6 -1 11 2 17
5 13 3 -3 4 -12 1 -19z m-17320 -20 c-3 -8 -6 -5 -6 6 -1 11 2 17 5 13 3 -3 4
-12 1 -19z m-37 -95 c-11 -17 -11 -17 -6 0 3 10 6 24 7 30 0 9 2 9 5 0 3 -7 0
-20 -6 -30z m-28 -105 c-8 -8 -9 -4 -5 13 4 13 8 18 11 10 2 -7 -1 -18 -6 -23z
m17445 -10 c-3 -7 -5 -2 -5 12 0 14 2 19 5 13 2 -7 2 -19 0 -25z m-17475 -90
c-6 -6 -7 0 -4 19 5 21 7 23 10 9 2 -10 0 -22 -6 -28z m17505 -15 c-3 -10 -5
-4 -5 12 0 17 2 24 5 18 2 -7 2 -21 0 -30z m-17530 -85 c-3 -8 -6 -5 -6 6 -1
11 2 17 5 13 3 -3 4 -12 1 -19z m17560 -30 c-3 -7 -5 -2 -5 12 0 14 2 19 5 13
2 -7 2 -19 0 -25z m-17597 -95 c-11 -17 -11 -17 -6 0 3 10 7 26 7 35 1 15 2
15 6 0 2 -10 -1 -25 -7 -35z m17644 -53 c10 -13 9 -13 -6 -1 -10 7 -17 23 -17
35 1 20 2 20 6 1 3 -11 10 -27 17 -35z m-17671 -91 c-6 -6 -7 3 -4 23 4 28 6
29 9 9 2 -13 0 -27 -5 -32z m17684 -16 c-3 -10 -5 -4 -5 12 0 17 2 24 5 18 2
-7 2 -21 0 -30z m-17710 -95 c-3 -7 -5 -2 -5 12 0 14 2 19 5 13 2 -7 2 -19 0
-25z m1058 -24 c44 -3 88 -10 97 -15 9 -5 26 -9 37 -9 11 0 26 -7 34 -15 8 -7
26 -17 40 -20 13 -4 31 -18 38 -32 8 -14 29 -32 47 -40 17 -7 32 -19 32 -26 0
-6 14 -32 30 -56 23 -34 30 -54 28 -87 -1 -36 -4 -42 -15 -32 -22 18 -43 65
-40 90 1 12 -3 23 -10 23 -6 0 -21 10 -33 23 -11 12 -25 22 -30 22 -6 0 -10 7
-10 15 0 8 -8 15 -18 15 -10 0 -29 10 -41 21 -23 21 -36 25 -93 28 -16 0 -28
7 -28 14 0 23 -54 34 -155 32 -54 -2 -101 -7 -102 -11 -9 -25 -23 -35 -54 -39
-19 -2 -41 -13 -51 -25 -9 -11 -20 -20 -25 -20 -5 0 -26 -21 -47 -46 -47 -56
-79 -58 -84 -5 l-3 33 38 -5 c21 -3 30 -3 20 -1 -16 5 -15 9 8 37 14 18 33 42
42 54 13 16 29 23 54 23 24 0 44 8 60 23 30 29 56 40 62 24 2 -8 9 -6 22 6 11
12 26 16 44 13 14 -3 62 -8 106 -12z m16682 -36 c-3 -7 -5 -2 -5 12 0 14 2 19
5 13 2 -7 2 -19 0 -25z m-17770 -95 c-3 -10 -5 -4 -5 12 0 17 2 24 5 18 2 -7
2 -21 0 -30z m17800 -45 c-2 -13 -4 -5 -4 17 -1 22 1 32 4 23 2 -10 2 -28 0
-40z m-17830 -85 c-3 -10 -5 -4 -5 12 0 17 2 24 5 18 2 -7 2 -21 0 -30z m666
-10 c2 -5 0 -27 -5 -51 -7 -32 -13 -42 -24 -38 -8 3 -14 0 -15 -7 -1 -7 -4 2
-9 20 -12 51 -2 83 26 83 12 0 25 -3 27 -7z m-676 -35 c-3 -8 -6 -5 -6 6 -1
11 2 17 5 13 3 -3 4 -12 1 -19z m17870 -60 c-2 -13 -4 -3 -4 22 0 25 2 35 4
23 2 -13 2 -33 0 -45z m-17890 -105 c-3 -10 -5 -2 -5 17 0 19 2 27 5 18 2 -10
2 -26 0 -35z m1574 -66 c-11 -11 -12 -10 -15 33 -1 8 3 18 9 22 14 10 20 -41
6 -55z m16351 -39 c2 -20 0 -34 -4 -32 -4 3 -8 24 -7 47 1 47 6 41 11 -15z
m-17955 -35 c-3 -10 -5 -4 -5 12 0 17 2 24 5 18 2 -7 2 -21 0 -30z m-10 -85
c-2 -13 -4 -3 -4 22 0 25 2 35 4 23 2 -13 2 -33 0 -45z m17990 -135 c-2 -16
-4 -5 -4 22 0 28 2 40 4 28 2 -13 2 -35 0 -50z m-18010 -105 c-3 -7 -5 -2 -5
12 0 14 2 19 5 13 2 -7 2 -19 0 -25z m-30 -100 c-3 -8 -6 -5 -6 6 -1 11 2 17
5 13 3 -3 4 -12 1 -19z m15990 -2175 c-3 -10 -5 -4 -5 12 0 17 2 24 5 18 2 -7
2 -21 0 -30z m-13880 -65 c-3 -8 -6 -5 -6 6 -1 11 2 17 5 13 3 -3 4 -12 1 -19z
m13870 0 c-3 -8 -6 -5 -6 6 -1 11 2 17 5 13 3 -3 4 -12 1 -19z m-20 -100 c-3
-8 -6 -5 -6 6 -1 11 2 17 5 13 3 -3 4 -12 1 -19z m-13820 -50 c-3 -8 -6 -5 -6
6 -1 11 2 17 5 13 3 -3 4 -12 1 -19z m10 -40 c-3 -8 -6 -5 -6 6 -1 11 2 17 5
13 3 -3 4 -12 1 -19z m13770 -100 c-3 -8 -6 -5 -6 6 -1 11 2 17 5 13 3 -3 4
-12 1 -19z m-13720 -100 c-3 -8 -6 -5 -6 6 -1 11 2 17 5 13 3 -3 4 -12 1 -19z
m10 -40 c-3 -8 -6 -5 -6 6 -1 11 2 17 5 13 3 -3 4 -12 1 -19z m13660 -50 c-3
-8 -6 -5 -6 6 -1 11 2 17 5 13 3 -3 4 -12 1 -19z m-10 -40 c-3 -8 -6 -5 -6 6
-1 11 2 17 5 13 3 -3 4 -12 1 -19z m-13610 -70 c-3 -8 -6 -5 -6 6 -1 11 2 17
5 13 3 -3 4 -12 1 -19z m10 -50 c-3 -8 -6 -5 -6 6 -1 11 2 17 5 13 3 -3 4 -12
1 -19z m13550 -70 c-3 -8 -6 -5 -6 6 -1 11 2 17 5 13 3 -3 4 -12 1 -19z
m-13478 -158 c0 -9 -4 -8 -9 5 -5 11 -9 27 -9 35 0 9 4 8 9 -5 5 -11 9 -27 9
-35z m13411 -55 c-16 -47 -23 -40 -8 8 6 20 13 35 16 33 2 -3 -1 -21 -8 -41z
m-60 -175 c-16 -40 -23 -33 -9 9 6 18 14 30 17 27 2 -3 -1 -19 -8 -36z m-29
-67 c-12 -20 -14 -14 -5 12 4 9 9 14 11 11 3 -2 0 -13 -6 -23z m-30 -80 c-12
-20 -14 -14 -5 12 4 9 9 14 11 11 3 -2 0 -13 -6 -23z m-30 -80 c-12 -20 -14
-14 -5 12 4 9 9 14 11 11 3 -2 0 -13 -6 -23z m-42 -112 c-12 -29 -23 -50 -25
-48 -2 2 6 27 18 55 12 28 23 50 26 48 2 -2 -7 -27 -19 -55z m-13005 -7 c3 -8
2 -12 -4 -9 -6 3 -10 10 -10 16 0 14 7 11 14 -7z m35 -81 c12 -24 20 -43 17
-43 -7 0 -33 44 -41 70 -10 33 -2 24 24 -27z m131 -268 c0 -16 -27 28 -34 55
-5 19 -2 16 13 -10 11 -19 20 -39 21 -45z m12660 -24 c-28 -56 -35 -52 -8 4
12 24 23 43 26 41 2 -2 -6 -22 -18 -45z m-12621 -71 c11 -24 11 -24 -3 -6 -9
11 -16 24 -16 30 0 12 5 7 19 -24z m12581 -8 c0 -5 -7 -17 -15 -28 -14 -18
-14 -17 -4 9 12 27 19 34 19 19z m-39 -75 c-10 -9 -11 -8 -5 6 3 10 9 15 12
12 3 -3 0 -11 -7 -18z m-12481 -27 c6 -11 8 -20 6 -20 -3 0 -10 9 -16 20 -6
11 -8 20 -6 20 3 0 10 -9 16 -20z m12463 -10 c-3 -10 -12 -25 -21 -32 -13 -11
-12 -8 2 20 19 36 27 41 19 12z m-12398 -100 c9 -16 13 -30 11 -30 -3 0 -12
14 -21 30 -9 17 -13 30 -11 30 3 0 12 -13 21 -30z m55 -95 c14 -19 14 -19 -2
-6 -10 7 -18 18 -18 24 0 6 1 8 3 6 1 -2 9 -13 17 -24z m12223 -10 c-9 -19
-20 -35 -25 -35 -4 0 2 16 13 35 12 19 23 35 25 35 2 0 -4 -16 -13 -35z
m-12147 -117 c8 -16 13 -28 10 -28 -6 0 -46 66 -46 76 0 10 14 -8 36 -48z
m12034 -67 c-29 -44 -54 -81 -57 -81 -3 0 3 12 13 28 10 15 33 53 52 85 19 32
37 56 39 53 2 -2 -19 -40 -47 -85z m-12000 9 c6 -11 8 -20 6 -20 -3 0 -10 9
-16 20 -6 11 -8 20 -6 20 3 0 10 -9 16 -20z m30 -50 c6 -11 8 -20 6 -20 -3 0
-10 9 -16 20 -6 11 -8 20 -6 20 3 0 10 -9 16 -20z m11893 -81 c-10 -17 -24
-36 -32 -42 -8 -7 -2 7 14 31 32 49 45 57 18 11z m-11788 -81 c16 -24 22 -38
14 -31 -15 12 -53 73 -46 73 2 0 17 -19 32 -42z m11706 -36 c-22 -31 -54 -73
-71 -92 -17 -19 -1 7 36 58 37 50 69 92 71 92 2 0 -14 -26 -36 -58z m-11653
-42 c13 -17 17 -27 8 -24 -11 4 -41 54 -33 54 2 0 13 -13 25 -30z m43 -57 c13
-16 12 -17 -3 -4 -10 7 -18 15 -18 17 0 8 8 3 21 -13z m90 -123 c26 -38 26
-40 4 -15 -14 17 -40 50 -56 75 -25 37 -26 40 -5 15 14 -16 40 -50 57 -75z
m11419 86 c0 -2 -8 -10 -17 -17 -16 -13 -17 -12 -4 4 13 16 21 21 21 13z m-60
-76 c-12 -16 -24 -30 -26 -30 -3 0 4 14 16 30 12 17 24 30 26 30 3 0 -4 -13
-16 -30z m-11305 -80 c10 -11 16 -20 13 -20 -3 0 -13 9 -23 20 -10 11 -16 20
-13 20 3 0 13 -9 23 -20z m11198 -70 c-85 -110 -107 -128 -32 -27 39 54 74 96
76 93 2 -2 -17 -32 -44 -66z m-11162 23 c13 -16 12 -17 -3 -4 -10 7 -18 15
-18 17 0 8 8 3 21 -13z m69 -89 c19 -26 29 -44 23 -41 -6 4 -28 31 -49 60 -20
28 -31 47 -23 40 8 -7 30 -33 49 -59z m70 -96 c19 -24 26 -37 17 -29 -19 15
-61 71 -54 71 2 0 19 -19 37 -42z m10888 -10 c-37 -53 -167 -196 -137 -152 16
25 153 184 157 184 2 0 -7 -15 -20 -32z m-10538 -373 c58 -60 97 -103 86 -95
-40 31 -330 335 -355 374 -8 11 26 -22 75 -74 48 -52 136 -144 194 -205z
m10334 141 c-22 -24 -46 -47 -54 -50 -8 -4 7 16 35 43 61 63 71 66 19 7z
m-135 -143 c-99 -106 -270 -272 -314 -306 -22 -17 52 59 165 170 113 111 207
202 209 203 2 0 -25 -30 -60 -67z m-9869 -331 c0 -7 -37 25 -110 97 -56 55
-53 53 23 -14 48 -43 87 -80 87 -83z m56 -44 l29 -33 -32 29 c-31 28 -38 36
-30 36 2 0 16 -15 33 -32z m9383 -35 c-22 -27 -100 -97 -118 -106 -9 -5 16 20
54 57 71 66 89 80 64 49z m-9164 -158 l30 -27 -30 20 c-16 11 -64 52 -105 92
l-75 72 75 -65 c41 -36 89 -77 105 -92z m8970 -5 c-7 -12 -259 -200 -300 -224
-27 -16 -28 -16 -7 0 13 9 87 66 165 125 149 113 152 115 142 99z m-8865 -77
c0 -7 -58 36 -66 49 -4 7 9 -1 29 -16 20 -16 37 -30 37 -33z m31 -20 c13 -16
12 -17 -3 -4 -10 7 -18 15 -18 17 0 8 8 3 21 -13z m40 -30 c13 -16 12 -17 -3
-4 -10 7 -18 15 -18 17 0 8 8 3 21 -13z m284 -208 c83 -57 106 -77 50 -45 -48
28 -235 168 -235 176 0 3 26 -14 58 -38 31 -24 89 -66 127 -93z m8160 75 c-3
-5 -20 -19 -38 -30 -32 -22 -32 -22 3 9 37 32 45 37 35 21z m-115 -90 c-42
-37 -140 -97 -140 -86 0 2 26 20 58 40 31 19 71 47 87 60 48 41 44 29 -5 -14z
m-155 -100 c-3 -5 -16 -15 -28 -21 -19 -9 -19 -8 3 10 28 23 34 26 25 11z
m-7665 -36 c0 -2 -9 0 -20 6 -11 6 -20 13 -20 16 0 2 9 0 20 -6 11 -6 20 -13
20 -16z m7530 -49 c0 -7 -112 -77 -116 -72 -3 2 21 20 53 40 66 40 63 39 63
32z m-7356 -64 c-2 -3 -12 3 -22 13 -16 17 -16 18 5 5 12 -7 20 -15 17 -18z
m56 -27 c0 -2 -9 0 -20 6 -11 6 -20 13 -20 16 0 2 9 0 20 -6 11 -6 20 -13 20
-16z m95 -54 c3 -5 1 -10 -4 -10 -6 0 -11 5 -11 10 0 6 2 10 4 10 3 0 8 -4 11
-10z m75 -45 c0 -2 -13 1 -30 6 -16 6 -30 15 -30 20 0 5 14 3 30 -6 17 -9 30
-17 30 -20z m6860 30 c0 -6 -77 -55 -87 -55 -5 0 12 14 37 30 50 32 50 32 50
25z m-6825 -53 c-3 -3 -11 0 -18 7 -9 10 -8 11 6 5 10 -3 15 -9 12 -12z m64
-28 c14 -12 -19 -1 -35 12 -18 14 -18 14 6 3 14 -6 27 -13 29 -15z m6656 16
c-3 -5 -12 -10 -18 -10 -7 0 -6 4 3 10 19 12 23 12 15 0z m-6539 -78 c-5 -4
-86 36 -86 43 0 3 20 -5 45 -17 24 -12 43 -23 41 -26z m6444 33 c0 -6 -56 -35
-67 -35 -4 1 8 9 27 20 39 22 40 22 40 15z m-6385 -63 c-3 -3 -11 0 -18 7 -9
10 -8 11 6 5 10 -3 15 -9 12 -12z m6175 -42 c-41 -22 -84 -43 -95 -45 -11 -3
18 15 65 39 47 25 90 45 95 45 6 0 -24 -17 -65 -39z m-5991 -46 c14 -12 -19
-1 -35 12 -18 14 -18 14 6 3 14 -6 27 -13 29 -15z m5787 -49 c-11 -8 -25 -15
-30 -15 -6 1 0 7 14 15 32 19 40 18 16 0z m-5671 -13 c-3 -3 -11 0 -18 7 -9
10 -8 11 6 5 10 -3 15 -9 12 -12z m70 -30 c-3 -3 -11 0 -18 7 -9 10 -8 11 6 5
10 -3 15 -9 12 -12z m5470 -11 c-6 -5 -21 -11 -35 -15 -21 -5 -20 -3 5 9 35
17 42 18 30 6z m-5395 -11 c8 -5 11 -10 5 -10 -5 0 -17 5 -25 10 -8 5 -10 10
-5 10 6 0 17 -5 25 -10z m5260 -45 c-14 -8 -29 -14 -35 -14 -5 0 1 6 15 14 14
8 30 14 35 14 6 0 -1 -6 -15 -14z m-5095 -15 c13 -6 15 -9 5 -9 -8 0 -22 4
-30 9 -18 12 -2 12 25 0z m4326 -47 c18 -26 48 -64 67 -85 32 -36 38 -38 96
-39 49 -1 55 -3 31 -9 -16 -4 -50 -8 -74 -9 -46 -1 -57 -4 -179 -46 -40 -14
-75 -25 -77 -25 -2 0 6 10 19 23 14 14 25 41 29 72 10 67 38 165 48 165 4 0
23 -21 40 -47z m-4171 -16 c13 -5 13 -6 -1 -6 -8 -1 -24 6 -35 15 -19 15 -19
15 1 6 11 -5 27 -12 35 -15z m4765 14 c-6 -5 -23 -12 -40 -15 -28 -6 -28 -5 5
8 43 18 46 18 35 7z m-4600 -71 c13 -6 15 -9 5 -9 -8 0 -22 4 -30 9 -18 12 -2
12 25 0z m4392 -6 c-3 -3 -12 -4 -19 -1 -8 3 -5 6 6 6 11 1 17 -2 13 -5z
m-4200 -50 c-3 -3 -12 -4 -19 -1 -8 3 -5 6 6 6 11 1 17 -2 13 -5z m150 -40
c-3 -3 -12 -4 -19 -1 -8 3 -5 6 6 6 11 1 17 -2 13 -5z m70 -20 c-3 -3 -12 -4
-19 -1 -8 3 -5 6 6 6 11 1 17 -2 13 -5z m40 -10 c-3 -3 -12 -4 -19 -1 -8 3 -5
6 6 6 11 1 17 -2 13 -5z m40 -10 c-3 -3 -12 -4 -19 -1 -8 3 -5 6 6 6 11 1 17
-2 13 -5z m3230 -50 c-3 -3 -12 -4 -19 -1 -8 3 -5 6 6 6 11 1 17 -2 13 -5z
m-54 -11 c-7 -2 -19 -2 -25 0 -7 3 -2 5 12 5 14 0 19 -2 13 -5z m-156 -29 c-3
-3 -12 -4 -19 -1 -8 3 -5 6 6 6 11 1 17 -2 13 -5z m-2564 -11 c-7 -2 -21 -2
-30 0 -10 3 -4 5 12 5 17 0 24 -2 18 -5z m2510 0 c-7 -2 -21 -2 -30 0 -10 3
-4 5 12 5 17 0 24 -2 18 -5z m-2435 -10 c-10 -2 -26 -2 -35 0 -10 3 -2 5 17 5
19 0 27 -2 18 -5z m2360 0 c-10 -2 -28 -2 -40 0 -13 2 -5 4 17 4 22 1 32 -1
23 -4z m-2101 -29 c-3 -3 -12 -4 -19 -1 -8 3 -5 6 6 6 11 1 17 -2 13 -5z
m1870 0 c-3 -3 -12 -4 -19 -1 -8 3 -5 6 6 6 11 1 17 -2 13 -5z m-1814 -11 c-7
-2 -19 -2 -25 0 -7 3 -2 5 12 5 14 0 19 -2 13 -5z m1754 1 c-3 -3 -12 -4 -19
-1 -8 3 -5 6 6 6 11 1 17 -2 13 -5z m-1690 -10 c-3 -3 -12 -4 -19 -1 -8 3 -5
6 6 6 11 1 17 -2 13 -5z m1626 -1 c-7 -2 -19 -2 -25 0 -7 3 -2 5 12 5 14 0 19
-2 13 -5z m-1515 -10 c-15 -2 -42 -2 -60 0 -18 2 -6 4 27 4 33 0 48 -2 33 -4z
m1450 0 c-15 -2 -42 -2 -60 0 -18 2 -6 4 27 4 33 0 48 -2 33 -4z m-1141 -29
c-3 -3 -12 -4 -19 -1 -8 3 -5 6 6 6 11 1 17 -2 13 -5z m780 0 c-3 -3 -12 -4
-19 -1 -8 3 -5 6 6 6 11 1 17 -2 13 -5z m-230 -11 c-98 -2 -256 -2 -350 0 -95
1 -14 3 178 2 193 0 270 -1 172 -2z"/>
<path d="M11368 19893 c6 -2 18 -2 25 0 6 3 1 5 -13 5 -14 0 -19 -2 -12 -5z"/>
<path d="M10488 19893 c7 -3 16 -2 19 1 4 3 -2 6 -13 5 -11 0 -14 -3 -6 -6z"/>
<path d="M14145 19340 c3 -5 8 -10 11 -10 2 0 4 5 4 10 0 6 -5 10 -11 10 -5 0
-7 -4 -4 -10z"/>
<path d="M8071 19194 c0 -11 3 -14 6 -6 3 7 2 16 -1 19 -3 4 -6 -2 -5 -13z"/>
<path d="M8116 19135 c-19 -22 -21 -37 -23 -202 -2 -98 -5 -210 -8 -250 l-5
-71 48 -4 c26 -2 54 -1 62 3 65 32 110 49 131 49 13 0 38 9 54 20 17 11 40 20
51 20 12 0 27 7 34 15 7 8 19 15 26 15 7 0 21 14 30 32 16 31 16 32 -10 55
-15 13 -32 36 -37 52 -6 16 -19 31 -30 34 -13 3 -19 14 -19 31 0 19 -5 26 -20
26 -18 0 -35 27 -54 84 -5 15 -9 16 -21 6 -16 -13 -35 -6 -35 15 0 7 -7 15
-15 19 -8 3 -15 9 -14 13 4 23 -5 33 -38 44 -63 21 -84 19 -107 -6z"/>
<path d="M8570 18790 c0 -5 5 -10 10 -10 6 0 10 5 10 10 0 6 -4 10 -10 10 -5
0 -10 -4 -10 -10z"/>
<path d="M14778 18143 c7 -3 16 -2 19 1 4 3 -2 6 -13 5 -11 0 -14 -3 -6 -6z"/>
<path d="M10765 16933 c-67 -20 -115 -68 -183 -183 -30 -52 -79 -134 -108
-181 -29 -47 -69 -119 -89 -160 -21 -41 -54 -103 -75 -139 -58 -101 -169 -299
-265 -475 -48 -88 -106 -191 -128 -230 -23 -38 -69 -122 -102 -185 -34 -63
-76 -140 -94 -170 -66 -111 -167 -293 -353 -635 -105 -192 -207 -377 -228
-410 -20 -33 -63 -107 -95 -165 -32 -58 -89 -158 -128 -224 -87 -147 -126
-244 -127 -312 0 -52 9 -70 83 -158 l24 -29 -47 -92 c-26 -50 -52 -119 -60
-153 -12 -59 -12 -63 13 -114 17 -33 75 -105 158 -193 72 -77 149 -166 172
-197 24 -34 53 -62 71 -69 37 -15 79 -51 116 -101 15 -21 52 -56 81 -79 105
-82 333 -305 803 -787 262 -268 518 -530 569 -583 142 -148 236 -201 300 -168
56 29 214 175 462 424 149 150 559 562 911 916 353 354 654 664 670 688 47 73
41 122 -33 262 l-62 116 30 29 c58 56 89 113 89 166 0 58 -18 96 -172 363
-172 297 -259 449 -343 600 -43 77 -103 184 -134 237 -59 103 -140 244 -211
368 -94 167 -205 360 -255 445 -29 50 -83 146 -120 215 -68 125 -185 328 -298
514 -33 55 -72 123 -87 150 -15 28 -51 94 -80 146 -29 52 -87 156 -128 230
-99 178 -116 202 -179 260 -44 41 -64 51 -122 64 -86 20 -180 19 -246 -1z
m192 -29 c-3 -3 -12 -4 -19 -1 -8 3 -5 6 6 6 11 1 17 -2 13 -5z m-257 -64
c-11 -16 -26 -33 -33 -37 -12 -7 0 11 32 50 23 28 24 20 1 -13z m435 -20 c10
-11 16 -20 13 -20 -3 0 -13 9 -23 20 -10 11 -16 20 -13 20 3 0 13 -9 23 -20z
m79 -116 c3 -8 2 -12 -4 -9 -6 3 -10 10 -10 16 0 14 7 11 14 -7z m-648 -82
c-9 -17 -21 -34 -27 -38 -7 -4 -2 12 11 34 27 47 40 50 16 4z m734 -77 c0 -5
-11 8 -25 30 -13 22 -24 45 -25 50 0 6 11 -8 25 -30 13 -22 24 -44 25 -50z
m-782 3 c-8 -13 -27 -44 -42 -70 -15 -27 -30 -48 -33 -48 -5 0 -5 0 41 78 21
34 40 62 43 62 3 0 -1 -10 -9 -22z m811 -48 c11 -24 11 -24 -3 -6 -9 11 -16
24 -16 30 0 12 5 7 19 -24z m70 -127 c12 -24 20 -43 17 -43 -7 0 -46 70 -46
82 0 15 4 10 29 -39z m-999 -42 c0 -5 -9 -19 -20 -32 l-20 -24 17 32 c19 34
23 39 23 24z m1055 -57 c9 -15 12 -23 6 -20 -11 7 -35 46 -28 46 3 0 12 -12
22 -26z m-1130 -74 c-9 -16 -18 -30 -21 -30 -2 0 2 14 11 30 9 17 18 30 21 30
2 0 -2 -13 -11 -30z m1199 -52 c16 -27 26 -48 23 -48 -6 0 -57 86 -57 96 0 10
3 6 34 -48z m-1244 -32 c-30 -49 -37 -46 -9 4 12 22 25 38 27 35 2 -2 -6 -20
-18 -39z m1291 -48 c11 -21 11 -22 -4 -9 -10 7 -17 17 -17 22 0 15 9 10 21
-13z m-1365 -76 c-18 -16 -18 -16 -6 6 6 13 14 21 18 18 3 -4 -2 -14 -12 -24z
m1423 -22 c11 -24 11 -24 -3 -6 -9 11 -16 24 -16 30 0 12 5 7 19 -24z m61
-100 c6 -11 8 -20 6 -20 -3 0 -10 9 -16 20 -6 11 -8 20 -6 20 3 0 10 -9 16
-20z m-1591 -84 c-11 -25 -25 -46 -30 -46 -5 0 3 22 18 49 34 61 42 59 12 -3z
m1621 29 c14 -19 14 -19 -2 -6 -10 7 -18 18 -18 24 0 6 1 8 3 6 1 -2 9 -13 17
-24z m34 -65 c-6 -5 -24 21 -24 34 0 6 6 1 14 -10 8 -10 12 -21 10 -24z
m-1724 -80 c-11 -22 -23 -40 -25 -40 -3 0 4 18 15 40 11 22 23 40 25 40 3 0
-4 -18 -15 -40z m1784 -17 c14 -29 24 -53 22 -53 -6 0 -43 65 -51 91 -11 34
-1 22 29 -38z m-1834 -77 c-30 -49 -36 -46 -8 3 12 22 24 38 26 36 3 -2 -6
-20 -18 -39z m1880 -6 c6 -11 8 -20 6 -20 -3 0 -10 9 -16 20 -6 11 -8 20 -6
20 3 0 10 -9 16 -20z m-1966 -147 c-31 -60 -61 -112 -66 -118 -12 -12 52 119
89 183 46 78 33 43 -23 -65z m2030 31 c3 -8 2 -12 -4 -9 -6 3 -10 10 -10 16 0
14 7 11 14 -7z m66 -119 c14 -19 14 -19 -2 -6 -10 7 -18 18 -18 24 0 6 1 8 3
6 1 -2 9 -13 17 -24z m-2195 -94 c-8 -17 -21 -33 -27 -37 -8 -5 -7 1 3 16 8
14 19 31 23 38 15 25 16 11 1 -17z m2264 -23 c12 -21 20 -38 18 -38 -7 0 -47
65 -47 75 0 10 1 8 29 -37z m-2341 -113 c-23 -47 -46 -85 -51 -85 -5 0 -3 10
5 23 9 12 29 50 47 85 17 34 33 62 36 62 3 0 -14 -38 -37 -85z m2390 20 c-3
-3 -9 2 -12 12 -6 14 -5 15 5 6 7 -7 10 -15 7 -18z m82 -135 c6 -11 8 -20 6
-20 -3 0 -10 9 -16 20 -6 11 -8 20 -6 20 3 0 10 -9 16 -20z m-2635 -176 c-42
-77 -81 -143 -87 -149 -6 -5 6 22 27 60 20 39 58 107 82 153 25 46 47 81 50
79 2 -3 -30 -67 -72 -143z m2665 126 c6 -11 8 -20 6 -20 -3 0 -10 9 -16 20 -6
11 -8 20 -6 20 3 0 10 -9 16 -20z m34 -56 c3 -8 2 -12 -4 -9 -6 3 -10 10 -10
16 0 14 7 11 14 -7z m30 -60 c3 -8 2 -12 -4 -9 -6 3 -10 10 -10 16 0 14 7 11
14 -7z m66 -118 c0 -6 -7 -1 -15 10 -8 10 -15 23 -15 28 0 6 7 1 15 -10 8 -10
15 -23 15 -28z m-2931 -138 c-44 -84 -111 -198 -117 -198 -2 0 9 24 26 53 16
28 48 87 71 130 51 92 66 104 20 15z m3021 -18 c6 -11 8 -20 6 -20 -3 0 -10 9
-16 20 -6 11 -8 20 -6 20 3 0 10 -9 16 -20z m28 -55 c-3 -3 -9 2 -12 12 -6 14
-5 15 5 6 7 -7 10 -15 7 -18z m71 -117 c12 -21 20 -38 18 -38 -7 0 -47 65 -47
75 0 10 1 8 29 -37z m-3270 -85 c-5 -16 -19 -39 -30 -53 -16 -20 -15 -15 6 28
27 56 40 69 24 25z m3321 -3 c6 -11 8 -20 6 -20 -3 0 -10 9 -16 20 -6 11 -8
20 -6 20 3 0 10 -9 16 -20z m-3390 -119 c-29 -42 -36 -39 -8 3 13 19 24 33 26
31 3 -2 -6 -18 -18 -34z m3444 23 c3 -8 2 -12 -4 -9 -6 3 -10 10 -10 16 0 14
7 11 14 -7z m-3513 -142 c-11 -23 -25 -43 -30 -46 -5 -3 3 16 18 43 31 59 42
61 12 3z m3588 3 l23 -40 -25 30 c-15 17 -26 36 -27 44 0 17 0 17 29 -34z m41
-65 c6 -11 8 -20 6 -20 -3 0 -10 9 -16 20 -6 11 -8 20 -6 20 3 0 10 -9 16 -20z
m-3720 -101 c-28 -52 -58 -101 -67 -109 -8 -8 -4 3 9 25 14 22 42 73 63 113
21 40 40 71 42 69 2 -3 -19 -47 -47 -98z m3784 -15 c3 -8 2 -12 -4 -9 -6 3
-10 10 -10 16 0 14 7 11 14 -7z m-3864 -124 c0 -5 -5 -10 -11 -10 -5 0 -7 5
-4 10 3 6 8 10 11 10 2 0 4 -4 4 -10z m-52 -87 c-17 -37 -48 -90 -48 -80 0 11
49 107 55 107 2 0 -1 -12 -7 -27z m4042 -8 c14 -19 14 -19 -2 -6 -10 7 -18 18
-18 24 0 6 1 8 3 6 1 -2 9 -13 17 -24z m54 -91 c3 -8 2 -12 -4 -9 -6 3 -10 10
-10 16 0 14 7 11 14 -7z m-4157 -36 c-3 -8 -6 -5 -6 6 -1 11 2 17 5 13 3 -3 4
-12 1 -19z m63 -193 c10 -15 7 -14 -13 4 -15 14 -27 29 -27 33 0 10 16 -5 40
-37z m298 -330 c-3 -3 -9 2 -12 12 -6 14 -5 15 5 6 7 -7 10 -15 7 -18z"/>
<path d="M8100 12104 c-17 -15 -49 -54 -72 -87 -42 -62 -347 -682 -426 -867
-88 -206 -194 -552 -216 -705 -3 -22 -20 -128 -38 -235 l-31 -195 -1 -545 -1
-545 33 -225 c18 -124 44 -272 57 -330 27 -119 134 -443 189 -570 81 -189 180
-257 294 -203 20 10 124 101 232 203 340 324 1867 1854 1885 1890 34 67 13
151 -55 215 -18 17 -46 47 -62 68 l-31 39 56 56 c104 107 125 159 93 235 -15
38 -522 560 -1249 1288 -568 569 -579 578 -657 513z m115 -42 c-3 -3 -11 0
-18 7 -9 10 -8 11 6 5 10 -3 15 -9 12 -12z m-135 -52 c-12 -16 -24 -30 -26
-30 -3 0 4 14 16 30 12 17 24 30 26 30 3 0 -4 -13 -16 -30z m220 -15 c19 -19
32 -35 29 -35 -3 0 -20 16 -39 35 -19 19 -32 35 -29 35 3 0 20 -16 39 -35z
m170 -172 c0 -10 -63 45 -76 66 -10 16 1 9 30 -19 25 -24 46 -46 46 -47z
m-467 57 c-3 -11 -10 -23 -16 -27 -5 -3 -8 -2 -5 3 3 5 8 17 11 27 9 24 16 22
10 -3z m507 -95 c13 -14 21 -25 18 -25 -2 0 -15 11 -28 25 -13 14 -21 25 -18
25 2 0 15 -11 28 -25z m-560 -13 c0 -5 -7 -17 -15 -28 -14 -18 -14 -17 -4 9
12 27 19 34 19 19z m671 -89 c13 -16 12 -17 -3 -4 -10 7 -18 15 -18 17 0 8 8
3 21 -13z m-731 -41 c0 -5 -7 -17 -15 -28 -14 -18 -14 -17 -4 9 12 27 19 34
19 19z m-69 -135 c-10 -9 -11 -8 -5 6 3 10 9 15 12 12 3 -3 0 -11 -7 -18z
m1334 -377 l219 -225 -222 220 c-123 121 -260 261 -304 310 l-82 90 85 -85
c47 -47 184 -186 304 -310z m-1385 272 c0 -5 -7 -17 -15 -28 -14 -18 -14 -17
-4 9 12 27 19 34 19 19z m-60 -130 c0 -5 -7 -17 -15 -28 -14 -18 -14 -17 -4 9
12 27 19 34 19 19z m-39 -79 c-12 -20 -14 -14 -5 12 4 9 9 14 11 11 3 -2 0
-13 -6 -23z m-41 -102 c-28 -56 -35 -52 -8 4 12 24 23 43 26 41 2 -2 -6 -22
-18 -45z m1855 -291 c55 -55 97 -100 95 -100 -3 0 -50 45 -105 100 -55 55 -97
100 -95 100 3 0 50 -45 105 -100z m-1938 68 c-3 -8 -6 -5 -6 6 -1 11 2 17 5
13 3 -3 4 -12 1 -19z m-27 -85 c-11 -17 -11 -17 -6 0 3 10 6 24 7 30 0 9 2 9
5 0 3 -7 0 -20 -6 -30z m2116 -135 l29 -33 -32 29 c-18 17 -33 31 -33 33 0 8
8 1 36 -29z m-2169 -50 c-3 -7 -5 -2 -5 12 0 14 2 19 5 13 2 -7 2 -19 0 -25z
m-17 -65 c-11 -17 -11 -17 -6 0 3 10 7 26 7 35 1 15 2 15 6 0 2 -10 -1 -25 -7
-35z m-13 -65 c-3 -8 -6 -5 -6 6 -1 11 2 17 5 13 3 -3 4 -12 1 -19z m-20 -120
c-3 -8 -6 -5 -6 6 -1 11 2 17 5 13 3 -3 4 -12 1 -19z m-10 -80 c-3 -7 -5 -2
-5 12 0 14 2 19 5 13 2 -7 2 -19 0 -25z m-10 -60 c-3 -8 -6 -5 -6 6 -1 11 2
17 5 13 3 -3 4 -12 1 -19z m-10 -60 c-3 -8 -6 -5 -6 6 -1 11 2 17 5 13 3 -3 4
-12 1 -19z m2513 -32 c0 -2 -8 -10 -17 -17 -16 -13 -17 -12 -4 4 13 16 21 21
21 13z"/>
<path d="M13790 12053 c-28 -13 -1469 -1436 -1680 -1658 -134 -141 -132 -184
13 -332 l60 -62 -67 -71 c-85 -91 -106 -125 -106 -176 0 -30 9 -53 33 -86 17
-25 392 -409 832 -854 893 -902 844 -854 903 -902 24 -19 65 -63 93 -96 27
-34 98 -105 157 -159 208 -189 259 -189 364 3 80 146 225 593 269 830 43 227
47 258 63 450 26 292 -2 1301 -37 1357 -3 5 -22 87 -42 182 -47 227 -90 373
-165 566 -54 142 -173 385 -239 490 -13 22 -54 92 -89 155 -91 163 -188 305
-235 345 -45 39 -74 43 -127 18z m-130 -166 c0 -1 -24 -25 -52 -52 l-53 -50
50 53 c46 48 55 57 55 49z m360 -47 c6 -11 8 -20 6 -20 -3 0 -10 9 -16 20 -6
11 -8 20 -6 20 3 0 10 -9 16 -20z m94 -156 c3 -8 2 -12 -4 -9 -6 3 -10 10 -10
16 0 14 7 11 14 -7z m-694 -37 c0 -2 -12 -14 -27 -28 l-28 -24 24 28 c23 25
31 32 31 24z m724 -23 c3 -8 2 -12 -4 -9 -6 3 -10 10 -10 16 0 14 7 11 14 -7z
m-784 -39 c0 -3 -16 -21 -35 -41 -19 -19 -35 -31 -35 -27 0 7 61 73 67 73 2 0
3 -2 3 -5z m840 -55 c6 -11 8 -20 6 -20 -3 0 -10 9 -16 20 -6 11 -8 20 -6 20
3 0 10 -9 16 -20z m-995 -108 c-90 -87 -89 -86 3 16 36 39 68 70 71 67 3 -3
-31 -40 -74 -83z m-85 -85 c0 -1 -37 -38 -82 -82 l-83 -80 80 83 c74 76 85 87
85 79z m1210 -47 c6 -11 8 -20 6 -20 -3 0 -10 9 -16 20 -6 11 -8 20 -6 20 3 0
10 -9 16 -20z m59 -122 c6 -18 7 -28 2 -23 -10 12 -25 55 -18 55 3 0 10 -15
16 -32z m-1439 -1 c0 -1 -26 -27 -57 -57 l-58 -55 55 58 c50 53 60 62 60 54z
m1500 -152 c0 -5 -5 -3 -10 5 -5 8 -10 20 -10 25 0 6 5 3 10 -5 5 -8 10 -19
10 -25z m-1630 22 c0 -1 -24 -25 -52 -52 l-53 -50 50 53 c46 48 55 57 55 49z
m-160 -163 c-30 -30 -140 -137 -245 -236 -163 -155 -156 -148 50 55 132 130
242 236 245 237 2 0 -20 -25 -50 -56z m1849 -29 c0 -5 -4 -3 -9 5 -5 8 -9 22
-9 30 0 16 17 -16 18 -35z m48 -167 c-3 -8 -6 -5 -6 6 -1 11 2 17 5 13 3 -3 4
-12 1 -19z m21 -78 c0 -9 -3 -7 -8 5 -5 11 -8 29 -8 40 0 16 2 15 8 -5 4 -14
8 -32 8 -40z m29 -142 c-3 -8 -6 -5 -6 6 -1 11 2 17 5 13 3 -3 4 -12 1 -19z
m-2387 -12 c0 -2 -8 -10 -17 -17 -16 -13 -17 -12 -4 4 13 16 21 21 21 13z
m2397 -58 c-3 -7 -5 -2 -5 12 0 14 2 19 5 13 2 -7 2 -19 0 -25z m10 -40 c-3
-8 -6 -5 -6 6 -1 11 2 17 5 13 3 -3 4 -12 1 -19z m20 -80 c-3 -8 -6 -5 -6 6
-1 11 2 17 5 13 3 -3 4 -12 1 -19z m30 -295 c-2 -21 -4 -6 -4 32 0 39 2 55 4
38 2 -18 2 -50 0 -70z"/>
<path d="M10952 9230 c-23 -16 -158 -143 -300 -282 -142 -139 -442 -432 -668
-650 -516 -500 -1295 -1282 -1323 -1328 -44 -72 -23 -116 104 -221 l76 -63
-84 -85 c-105 -107 -117 -125 -117 -176 0 -37 6 -46 83 -120 92 -90 336 -258
515 -355 229 -124 488 -226 782 -308 195 -55 217 -59 377 -77 76 -9 179 -23
228 -32 151 -27 611 -21 907 12 238 26 324 43 504 95 56 17 112 30 123 30 13
0 41 -19 65 -45 25 -25 51 -45 59 -45 27 0 46 29 53 81 5 36 13 55 32 69 13
11 28 20 33 20 15 0 332 152 444 213 236 129 488 310 530 380 28 49 32 95 11
135 -8 15 -51 63 -95 107 -45 44 -81 83 -81 86 0 4 29 30 65 58 84 66 125 122
125 171 0 31 -10 49 -64 111 -75 88 -2186 2187 -2236 2224 -47 35 -96 33 -148
-5z m209 -97 l34 -37 -37 30 c-20 16 -37 32 -37 37 -2 12 4 8 40 -30z m174
-173 c10 -11 16 -20 13 -20 -3 0 -13 9 -23 20 -10 11 -16 20 -13 20 3 0 13 -9
23 -20z m225 -227 c107 -108 186 -190 175 -183 -55 38 -390 380 -372 380 1 0
90 -89 197 -197z m-1093 -33 c-164 -159 -168 -161 -17 -7 69 70 128 127 132
127 4 0 -48 -54 -115 -120z m-157 -143 c0 -2 -10 -12 -22 -23 l-23 -19 19 23
c18 21 26 27 26 19z m1490 -62 c19 -19 32 -35 29 -35 -3 0 -20 16 -39 35 -19
19 -32 35 -29 35 3 0 20 -16 39 -35z m160 -160 c63 -63 112 -115 110 -115 -3
0 -57 52 -120 115 -63 63 -112 115 -110 115 3 0 57 -52 120 -115z m-1880 2 c0
-2 -10 -12 -22 -23 l-23 -19 19 23 c18 21 26 27 26 19z m2090 -214 c0 -8 -9 0
-50 45 l-45 47 48 -45 c26 -24 47 -45 47 -47z m100 -98 c13 -14 21 -25 18 -25
-2 0 -15 11 -28 25 -13 14 -21 25 -18 25 2 0 15 -11 28 -25z m-2510 -8 c0 -2
-10 -12 -22 -23 l-23 -19 19 23 c18 21 26 27 26 19z m-120 -122 c-41 -41 -77
-75 -79 -75 -3 0 28 34 69 75 41 41 77 75 79 75 3 0 -28 -34 -69 -75z m2701
58 c13 -16 12 -17 -3 -4 -10 7 -18 15 -18 17 0 8 8 3 21 -13z m369 -370 c0 -8
-9 0 -50 45 l-45 47 48 -45 c26 -24 47 -45 47 -47z m-3350 34 c0 -2 -10 -12
-22 -23 l-23 -19 19 23 c18 21 26 27 26 19z m3401 -84 c13 -16 12 -17 -3 -4
-10 7 -18 15 -18 17 0 8 8 3 21 -13z m129 -130 c0 -8 -9 0 -50 45 l-45 47 48
-45 c26 -24 47 -45 47 -47z m45 -43 c10 -11 16 -20 13 -20 -3 0 -13 9 -23 20
-10 11 -16 20 -13 20 3 0 13 -9 23 -20z m65 -65 c19 -19 32 -35 29 -35 -3 0
-20 16 -39 35 -19 19 -32 35 -29 35 3 0 20 -16 39 -35z m130 -132 c0 -8 -9 0
-50 45 l-45 47 48 -45 c26 -24 47 -45 47 -47z m145 -383 c-10 -11 -21 -18 -23
-15 -3 3 3 12 14 20 27 20 30 18 9 -5z m-35 -24 c0 -3 -15 -14 -32 -26 l-33
-22 30 26 c31 27 35 29 35 22z m-973 -572 c-3 -3 -12 -4 -19 -1 -8 3 -5 6 6 6
11 1 17 -2 13 -5z"/>
<path d="M6865 17751 c-3 -5 -1 -12 5 -16 5 -3 10 1 10 9 0 18 -6 21 -15 7z"/>
<path d="M3758 14325 c2 -14 11 -25 18 -25 17 0 17 5 4 31 -15 27 -28 24 -22
-6z"/>
</g>
</svg>
